<svg width="412" height="321" viewBox="0 0 412 321" xmlns="http://www.w3.org/2000/svg" xmlns:xlink="http://www.w3.org/1999/xlink">
    <g id="XMLID33">
        <g id="XMLID472">
            <path id="XMLID935" fill="#000000" stroke="none" d="M 385.200012 190.799988 L 385.200012 179.700012 L 206 0.5 L 26.800003 179.700012 L 26.800003 190.799988 L 0.300003 217.299988 L 0.300003 284.599976 L 17.600006 284.599976 L 22 289 L 37.399994 289 C 45.800003 300.599976 59.100006 307.400024 73.600006 307.400024 C 78.100006 307.400024 82.5 306.700012 86.699997 305.400024 L 86.699997 320.299988 L 102.699997 320.299988 L 117.700012 305.299988 L 117.700012 284.299988 L 126.100006 284.299988 L 133.200012 277.200012 L 133.200012 271.299988 L 139.100006 271.299988 L 146.200012 264.200012 L 146.200012 258 L 152.399994 258 L 159.5 250.900024 L 159.5 245.400024 L 165 245.400024 L 172.100006 238.299988 L 172.100006 232.900024 L 177.5 232.900024 L 184.600006 225.799988 L 184.600006 220.900024 L 192.399994 228.700012 L 220 228.700012 L 227.799988 220.900024 L 227.799988 225.799988 L 234.899994 232.900024 L 240.299988 232.900024 L 240.299988 238.299988 L 247.399994 245.400024 L 252.899994 245.400024 L 252.899994 250.900024 L 260 258 L 266.200012 258 L 266.200012 264.200012 L 273.299988 271.299988 L 279.200012 271.299988 L 279.200012 277.200012 L 286.299988 284.299988 L 294.700012 284.299988 L 294.700012 305.299988 L 309.700012 320.299988 L 325.700012 320.299988 L 325.700012 305.400024 C 329.899994 306.700012 334.399994 307.400024 338.799988 307.400024 C 353.200012 307.400024 366.600006 300.599976 375 289 L 390 289 L 394.400024 284.599976 L 411.700012 284.599976 L 411.700012 217.299988 L 385.200012 190.799988 Z M 106.699997 300.700012 L 99.5 307.900024 L 99.5 283 L 90.899994 291.599976 L 89.699997 292.299988 C 84.800003 294.900024 79.300003 296.299988 73.699997 296.299988 C 62 296.299988 51.300003 290.400024 45.100006 280.5 L 43.5 277.900024 L 37.399994 277.900024 C 35.399994 273 34.300003 267.799988 34.300003 262.5 C 34.300003 240.599976 52.100006 222.799988 74 222.799988 C 95.899994 222.799988 113.700012 240.599976 113.700012 262.5 C 113.700012 264.700012 113.5 266.799988 113.200012 268.900024 L 103.100006 279 L 107 282.900024 L 107 300.700012 Z M 119 263.099976 C 119 262.900024 119 262.799988 119 262.599976 C 119 256.700012 117.799988 251 115.700012 245.799988 L 154.399994 207.099976 L 164.700012 217.400024 L 119 263.099976 Z M 223.200012 209.900024 L 215.299988 217.799988 L 196.799988 217.799988 L 188.899994 209.900024 L 182.399994 209.900024 L 182.399994 207.299988 L 206 207.299988 L 229.700012 207.299988 L 229.700012 209.900024 L 223.200012 209.900024 Z M 293.100006 263.099976 L 247.299988 217.299988 L 257.600006 207 L 296.299988 245.700012 C 294.200012 250.900024 293 256.599976 293 262.5 C 293.100006 262.799988 293.100006 263 293.100006 263.099976 Z M 368.599976 278 L 367 280.599976 C 360.799988 290.5 350.100006 296.400024 338.399994 296.400024 C 332.799988 296.400024 327.299988 295 322.399994 292.400024 L 321.299988 291.799988 L 312.600006 283.099976 L 312.600006 308.099976 L 305.299988 300.799988 L 305.299988 283 L 309.200012 279.099976 L 299.200012 269.099976 C 298.799988 266.900024 298.600006 264.799988 298.600006 262.599976 C 298.600006 240.700012 316.399994 222.900024 338.299988 222.900024 C 360.200012 222.900024 378 240.700012 378 262.599976 C 378 267.900024 376.900024 273.200012 374.900024 278 L 368.599976 278 Z M 400.799988 273.599976 L 389.900024 273.599976 L 385.5 278 L 380.799988 278 C 382.599976 273.099976 383.5 267.799988 383.5 262.599976 C 383.5 237.700012 363.200012 217.400024 338.299988 217.400024 C 329.600006 217.400024 321.5 219.900024 314.600006 224.099976 L 247.5 157 L 247.5 143.400024 L 222.600006 118.5 L 222.600006 96.799988 L 211.700012 86 L 211.700012 93.799988 L 217.100006 99.099976 L 217.100006 120.799988 L 242 145.700012 L 242 159.299988 L 310 227.299988 C 305.5 230.900024 301.700012 235.400024 298.799988 240.5 L 257.600006 199.299988 L 243.399994 213.5 L 239.799988 209.900024 L 235.100006 209.900024 L 235.100006 201.799988 L 206 201.799988 L 176.799988 201.799988 L 176.799988 209.900024 L 172.100006 209.900024 L 168.5 213.5 L 154.299988 199.299988 L 113.100006 240.5 C 110.199997 235.400024 106.399994 230.900024 101.899994 227.299988 L 169.899994 159.299988 L 169.899994 145.700012 L 194.799988 120.799988 L 194.799988 99.099976 L 200.200012 93.700012 L 200.200012 86 L 189.299988 96.900024 L 189.299988 118.599976 L 164.399994 143.5 L 164.399994 157 L 97.300003 224.099976 C 90.399994 219.900024 82.300003 217.400024 73.600006 217.400024 C 48.699997 217.400024 28.399994 237.700012 28.399994 262.599976 C 28.399994 267.900024 29.300003 273.099976 31.100006 278 L 26.300003 278 L 21.899994 273.599976 L 11 273.599976 L 11 246.700012 L 15.199997 246.700012 L 15.199997 237 L 11 237 L 11 221.900024 L 37.5 195.400024 L 37.5 184.299988 L 57.5 164.299988 L 60.699997 167.5 L 73.699997 154.5 L 70.5 151.299988 L 86.800003 135 L 90 138.200012 L 103 125.200012 L 99.800003 122 L 140 81.799988 L 143.299988 85.099976 L 150.299988 78.099976 L 147 74.799988 L 206 16 L 264.700012 74.700012 L 261.5 77.900024 L 268.5 84.900024 L 271.700012 81.700012 L 311.899994 121.900024 L 308.700012 125.099976 L 321.700012 138.099976 L 324.899994 134.900024 L 341.200012 151.200012 L 338 154.400024 L 351 167.400024 L 354.200012 164.200012 L 374.200012 184.200012 L 374.200012 195.299988 L 400.700012 221.799988 L 400.700012 237 L 396.5 237 L 396.5 246.799988 L 400.700012 246.799988 L 400.700012 273.599976 Z"/>
            <path id="XMLID943" fill="#000000" stroke="none" d="M 73.800003 239.799988 C 61.199997 239.799988 51 250 51 262.599976 C 51 275.200012 61.199997 285.400024 73.800003 285.400024 C 86.399994 285.400024 96.600006 275.200012 96.600006 262.599976 C 96.5 250 86.300003 239.799988 73.800003 239.799988 Z M 73.800003 279.900024 C 64.300003 279.900024 56.5 272.200012 56.5 262.599976 C 56.5 253.099976 64.199997 245.299988 73.800003 245.299988 C 83.300003 245.299988 91.100006 253 91.100006 262.599976 C 91 272.099976 83.300003 279.900024 73.800003 279.900024 Z"/>
            <path id="XMLID946" fill="#000000" stroke="none" d="M 338.100006 239.799988 C 325.5 239.799988 315.299988 250 315.299988 262.599976 C 315.299988 275.200012 325.5 285.400024 338.100006 285.400024 C 350.700012 285.400024 360.899994 275.200012 360.899994 262.599976 C 360.899994 250 350.700012 239.799988 338.100006 239.799988 Z M 338.100006 279.900024 C 328.600006 279.900024 320.799988 272.200012 320.799988 262.599976 C 320.799988 253.099976 328.5 245.299988 338.100006 245.299988 C 347.700012 245.299988 355.399994 253 355.399994 262.599976 C 355.399994 272.099976 347.700012 279.900024 338.100006 279.900024 Z"/>
            <path id="XMLID947" fill="#000000" stroke="none" d="M 122 221.5 C 122 222.935913 120.835938 224.099976 119.399994 224.099976 C 117.96405 224.099976 116.799988 222.935913 116.799988 221.5 C 116.799988 220.064087 117.96405 218.900024 119.399994 218.900024 C 120.835938 218.900024 122 220.064087 122 221.5 Z"/>
            <path id="XMLID948" fill="#000000" stroke="none" d="M 135.799988 207.599976 C 135.799988 209.03595 134.635925 210.200012 133.200012 210.200012 C 131.764069 210.200012 130.600006 209.03595 130.600006 207.599976 C 130.600006 206.164063 131.764069 205 133.200012 205 C 134.635925 205 135.799988 206.164063 135.799988 207.599976 Z"/>
            <path id="XMLID951" fill="#000000" stroke="none" d="M 170.299988 171.700012 C 162.899994 171.700012 156.899994 177.700012 156.899994 185.099976 C 156.899994 192.5 162.899994 198.5 170.299988 198.5 C 175.799988 198.5 180.5 195.200012 182.600006 190.400024 C 183 189.599976 183.299988 188.700012 183.399994 187.799988 L 185.200012 187.799988 L 190.700012 182.299988 L 183.399994 182.299988 C 182.200012 176.299988 176.799988 171.700012 170.299988 171.700012 Z M 170.299988 193.099976 C 165.899994 193.099976 162.399994 189.5 162.399994 185.200012 C 162.399994 180.900024 166 177.299988 170.299988 177.299988 C 174.600006 177.299988 178.200012 180.900024 178.200012 185.200012 C 178.200012 189.5 174.700012 193.099976 170.299988 193.099976 Z"/>
            <path id="XMLID952" fill="#000000" stroke="none" d="M 295.200012 221.5 C 295.200012 222.935913 294.03595 224.099976 292.600006 224.099976 C 291.164063 224.099976 290 222.935913 290 221.5 C 290 220.064087 291.164063 218.900024 292.600006 218.900024 C 294.03595 218.900024 295.200012 220.064087 295.200012 221.5 Z"/>
            <path id="XMLID953" fill="#000000" stroke="none" d="M 281.399994 207.599976 C 281.399994 209.03595 280.235931 210.200012 278.799988 210.200012 C 277.364075 210.200012 276.200012 209.03595 276.200012 207.599976 C 276.200012 206.164063 277.364075 205 278.799988 205 C 280.235931 205 281.399994 206.164063 281.399994 207.599976 Z"/>
            <path id="XMLID956" fill="#000000" stroke="none" d="M 228.5 187.900024 C 228.700012 188.799988 229 189.700012 229.299988 190.5 C 231.399994 195.200012 236.100006 198.599976 241.600006 198.599976 C 249 198.599976 255 192.599976 255 185.200012 C 255 177.799988 249 171.799988 241.600006 171.799988 C 235.100006 171.799988 229.700012 176.400024 228.5 182.5 L 221.200012 182.5 L 226.700012 188 L 228.5 188 Z M 241.600006 177.200012 C 246 177.200012 249.5 180.799988 249.5 185.099976 C 249.5 189.400024 245.899994 193 241.600006 193 C 237.299988 193 233.700012 189.400024 233.700012 185.099976 C 233.700012 180.799988 237.299988 177.200012 241.600006 177.200012 Z"/>
        </g>
    </g>
</svg>
