<svg width="208" height="353" viewBox="0 0 208 353" xmlns="http://www.w3.org/2000/svg" xmlns:xlink="http://www.w3.org/1999/xlink">
    <g id="XMLID30">
        <g id="XMLID475">
            <path id="XMLID636" fill="#000000" stroke="none" d="M 107.199951 232.5 C 107.199951 234.101624 105.901611 235.400024 104.300049 235.400024 C 102.698364 235.400024 101.400024 234.101624 101.400024 232.5 C 101.400024 230.898376 102.698364 229.599976 104.300049 229.599976 C 105.901611 229.599976 107.199951 230.898376 107.199951 232.5 Z"/>
            <path id="XMLID639" fill="#000000" stroke="none" d="M 203.400024 235.099976 L 203.400024 198.299988 L 203.400024 187.299988 L 192.400024 187.299988 L 181 187.299988 L 176.400024 187.299988 L 173.199951 190.5 L 166.400024 197.299988 L 163.199951 200.5 L 161.800049 199.099976 L 161.800049 194.799988 L 166.400024 190.200012 L 169.599976 187 L 169.599976 184 L 171.699951 184 L 174.900024 180.799988 L 187.400024 168.299988 L 190.599976 165.099976 L 190.599976 160.5 L 190.599976 157.200012 C 201.699951 140.299988 207.5 120.799988 207.5 100.5 C 207.5 55.900024 179.099976 16.400024 136.800049 2.299988 L 130.300049 0.099976 L 125.5 4.900024 L 122.900024 7.5 L 104 7.5 L 85.099976 7.5 L 82.5 4.900024 L 77.699951 0.099976 L 71.199951 2.299988 C 28.900024 16.400024 0.5 55.900024 0.5 100.5 C 0.5 120.799988 6.300049 140.400024 17.400024 157.200012 L 17.400024 160.5 L 17.400024 165.099976 L 20.599976 168.299988 L 33.099976 180.799988 L 36.300049 184 L 38.400024 184 L 38.400024 187 L 41.599976 190.200012 L 46.199951 194.799988 L 46.199951 199.099976 L 44.800049 200.5 L 41.599976 197.299988 L 34.800049 190.5 L 31.599976 187.299988 L 27 187.299988 L 15.699951 187.299988 L 4.699951 187.299988 L 4.699951 198.299988 L 4.699951 235.099976 L 3.800049 236 L 0.599976 239.200012 L 0.599976 243.799988 L 0.599976 272.5 L 0.599976 277.099976 L 3.800049 280.299988 L 4.5 281 L 4.5 311.099976 L 4.5 315.700012 L 7.699951 318.900024 L 22.5 333.700012 L 41.300049 352.5 L 41.300049 325.900024 L 41.300049 295.700012 L 41.300049 295.700012 L 44.5 292.5 L 44.5 287.900024 L 44.5 270.299988 L 53.900024 260.900024 L 65 260.900024 L 69.599976 260.900024 L 72.800049 257.700012 L 82.900024 247.599976 L 82.900024 252.400024 L 93.900024 252.400024 L 103.900024 252.400024 L 113.900024 252.400024 L 124.900024 252.400024 L 124.900024 247.599976 L 135 257.700012 L 138.199951 260.900024 L 142.800049 260.900024 L 153.900024 260.900024 L 163.300049 270.299988 L 163.300049 287.900024 L 163.300049 292.5 L 166.5 295.700012 L 166.5 295.700012 L 166.5 325.900024 L 166.5 352.5 L 185.300049 333.700012 L 200.099976 318.900024 L 203.300049 315.700012 L 203.300049 311.099976 L 203.300049 281 L 204 280.299988 L 207.199951 277.099976 L 207.199951 272.5 L 207.199951 243.799988 L 207.199951 239.200012 L 204 236 L 203.400024 235.099976 Z M 114.199951 225.700012 L 114.199951 225.700012 L 114.199951 241.299988 L 104.199951 241.299988 L 94.199951 241.299988 L 94.199951 225.700012 L 94.199951 204.599976 L 98.800049 200 L 104.199951 200 L 109.599976 200 L 114.199951 204.599976 L 114.199951 225.700012 Z M 196.5 272.400024 L 192.599976 276.299988 L 192.599976 289.700012 L 187.599976 289.700012 L 187.599976 300.099976 L 192.599976 300.099976 L 192.599976 310.900024 L 177.800049 325.700012 L 177.800049 291 L 174.5 287.700012 L 174.5 265.5 L 177.300049 262.700012 L 177.300049 245.700012 L 167.599976 236 L 152.699951 236 L 152.699951 229.599976 L 147.199951 235.099976 L 147.199951 241.5 L 165.300049 241.5 L 171.699951 247.900024 L 171.699951 262.700012 L 158.599976 249.599976 L 143 249.599976 L 132.800049 239.400024 L 132.800049 234.200012 L 122.800049 234.200012 L 120.099976 231.5 L 120.099976 205.400024 L 125.199951 210.5 L 128.800049 210.5 L 128.800049 189.299988 C 127.199951 189.700012 125.699951 190.099976 124.099976 190.5 L 120.800049 187.200012 L 117.599976 184 L 114 184 L 114 174 L 124.199951 174 L 126.199951 172 L 126.199951 181.900024 L 131.699951 181.900024 L 131.699951 176.400024 L 131.699951 159 L 121.900024 168.799988 L 108.5 168.799988 L 108.5 184.299988 L 104.099976 184.299988 L 99.699951 184.299988 L 99.699951 168.799988 L 86.300049 168.799988 L 76.5 159 L 76.5 176.599976 L 76.5 182.099976 L 82 182.099976 L 82 172.200012 L 84 174.200012 L 94.199951 174.200012 L 94.199951 184.200012 L 90.5 184.200012 L 87.300049 187.400024 L 84 190.700012 C 82.400024 190.299988 80.800049 189.900024 79.300049 189.5 L 79.300049 210.700012 L 82.900024 210.700012 L 88 205.599976 L 88 231.700012 L 85.300049 234.400024 L 75.300049 234.400024 L 75.300049 239.599976 L 65.099976 249.799988 L 49.5 249.799988 L 36.400024 262.900024 L 36.400024 248 L 42.800049 241.599976 L 60.900024 241.599976 L 60.900024 235.200012 L 55.400024 229.700012 L 55.400024 236.099976 L 40.5 236.099976 L 30.800049 245.799988 L 30.800049 262.900024 L 33.599976 265.700012 L 33.599976 287.900024 L 30.300049 291.200012 L 30.300049 325.900024 L 15.5 311.099976 L 15.5 300.299988 L 20.599976 300.299988 L 20.599976 289.900024 L 15.5 289.900024 L 15.5 276.5 L 11.599976 272.599976 L 11.599976 243.900024 L 15.699951 239.799988 L 15.699951 230.900024 L 20.599976 230.900024 L 20.599976 220.5 L 15.699951 220.5 L 15.699951 214.700012 L 20.599976 214.700012 L 20.599976 204.299988 L 15.699951 204.299988 L 15.699951 198.5 L 27 198.5 L 33.800049 205.299988 L 33.800049 227.299988 L 46.599976 227.299988 L 49.599976 224.299988 L 57.099976 216.799988 L 57.099976 190.599976 L 49.199951 182.700012 L 49.199951 176.400024 L 49.199951 175.400024 C 48.199951 174.700012 47.300049 174 46.300049 173.200012 L 40.599976 173.200012 L 28.099976 160.700012 L 28.099976 154 C 18.400024 140.299988 12.400024 123.900024 11.300049 106.099976 L 15.900024 106.099976 L 15.900024 96.599976 L 11.300049 96.599976 C 13 57.5 38.900024 24.700012 74.400024 12.799988 L 80.199951 18.599976 L 103.699951 18.599976 L 127.199951 18.599976 L 133 12.799988 C 168.5 24.700012 194.5 57.5 196.099976 96.599976 L 191.5 96.599976 L 191.5 106.099976 L 196.099976 106.099976 C 195.099976 123.900024 189 140.299988 179.300049 154 L 179.300049 160.700012 L 166.800049 173.200012 L 161.099976 173.200012 C 160.199951 173.900024 159.199951 174.700012 158.199951 175.400024 L 158.199951 176.400024 L 158.199951 182.700012 L 150.300049 190.599976 L 150.300049 216.799988 L 160.800049 227.299988 L 173.599976 227.299988 L 173.599976 205.299988 L 180.400024 198.5 L 191.699951 198.5 L 191.699951 204.299988 L 186.900024 204.299988 L 186.900024 214.700012 L 191.699951 214.700012 L 191.699951 220.5 L 186.900024 220.5 L 186.900024 230.900024 L 191.699951 230.900024 L 191.699951 239.799988 L 195.800049 243.900024 L 195.800049 272.400024 Z"/>
            <path id="XMLID661" fill="#000000" stroke="none" d="M 104.300049 31.200012 C 140.900024 31.200012 171 59.5 173.900024 95.299988 L 179.699951 101.099976 C 179.699951 59.5 145.900024 25.700012 104.300049 25.700012 C 62.699951 25.700012 28.900024 59.5 28.900024 101.099976 L 34.699951 95.299988 C 37.599976 59.5 67.699951 31.200012 104.300049 31.200012 Z"/>
            <path id="XMLID662" fill="#000000" stroke="none" d="M 33.400024 126.900024 C 35.5 132.5 38.199951 137.900024 41.5 142.900024 L 41.5 131.900024 C 40 128.900024 38.699951 125.799988 37.699951 122.599976 L 33.400024 126.900024 Z"/>
            <path id="XMLID663" fill="#000000" stroke="none" d="M 167 131.900024 L 167 142.900024 C 170.300049 137.900024 173.099976 132.5 175.099976 126.900024 L 170.800049 122.599976 C 169.800049 125.799988 168.5 128.900024 167 131.900024 Z"/>
            <path id="XMLID666" fill="#000000" stroke="none" d="M 152.099976 154.400024 L 156.699951 149.799988 L 156.699951 104.700012 L 151 99 L 151 74.200012 L 137.5 74.200012 L 137.5 46.799988 L 104.400024 46.799988 L 104.400024 49.299988 L 104.400024 49.299988 L 104.400024 46.799988 L 71.300049 46.799988 L 71.300049 74.200012 L 57.800049 74.200012 L 57.800049 99 L 52.099976 104.700012 L 52.099976 149.799988 L 56.699951 154.400024 L 56.699951 159 L 62.199951 164.5 L 62.199951 152.099976 L 57.599976 147.5 L 57.599976 106.900024 L 63.300049 101.200012 L 63.300049 79.700012 L 76.800049 79.700012 L 76.800049 52.299988 L 101.599976 52.299988 L 101.599976 75 L 101.599976 75 L 86.800049 89.799988 L 86.800049 91.900024 L 86.800049 110.700012 L 82.300049 110.700012 L 82.300049 96.5 L 76.800049 102 L 76.800049 110.700012 L 76.800049 117 L 76.800049 149.400024 L 84.400024 149.400024 L 84.400024 154.599976 L 99 154.599976 L 99 131.799988 L 92.400024 125.200012 L 92.400024 117.799988 L 92.400024 110.799988 L 92.400024 92 L 104.400024 80 L 116.400024 92 L 116.400024 110.599976 L 116.400024 117.599976 L 116.400024 125 L 109.800049 131.599976 L 109.800049 154.400024 L 124.400024 154.400024 L 124.400024 149.200012 L 132 149.200012 L 132 116.799988 L 132 110.5 L 132 101.799988 L 126.5 96.299988 L 126.5 110.5 L 122 110.5 L 122 91.700012 L 122 89.599976 L 107 75 L 107 52.200012 L 131.900024 52.200012 L 131.900024 79.599976 L 145.400024 79.599976 L 145.400024 101.099976 L 151.099976 106.799988 L 151.099976 147.400024 L 146.5 152 L 146.5 164.400024 L 152 158.900024 L 152 154.400024 Z M 93.400024 134 L 93.400024 149 L 89.800049 149 L 89.800049 143.799988 L 82.199951 143.799988 L 82.199951 116.900024 L 82.199951 116.099976 L 86.699951 116.099976 L 86.699951 117.599976 L 86.699951 127.299988 L 93.400024 134 Z M 126.300049 116.099976 L 126.300049 116.900024 L 126.300049 143.799988 L 118.699951 143.799988 L 118.699951 149 L 115.099976 149 L 115.099976 134 L 121.699951 127.400024 L 121.699951 117.700012 L 121.699951 116.200012 L 126.300049 116.200012 Z"/>
            <path id="XMLID668" fill="#000000" stroke="none" d="M 111.699951 101.099976 C 111.699951 105.18689 108.386963 108.5 104.300049 108.5 C 100.213135 108.5 96.900024 105.18689 96.900024 101.099976 C 96.900024 97.013062 100.213135 93.700012 104.300049 93.700012 C 108.386963 93.700012 111.699951 97.013062 111.699951 101.099976 Z"/>
            <path id="XMLID669" fill="#000000" stroke="none" d="M 87.300049 61.599976 C 87.300049 63.146362 86.046387 64.400024 84.5 64.400024 C 82.953613 64.400024 81.699951 63.146362 81.699951 61.599976 C 81.699951 60.053589 82.953613 58.799988 84.5 58.799988 C 86.046387 58.799988 87.300049 60.053589 87.300049 61.599976 Z"/>
            <path id="XMLID670" fill="#000000" stroke="none" d="M 126.900024 61.599976 C 126.900024 63.146362 125.646362 64.400024 124.099976 64.400024 C 122.553589 64.400024 121.300049 63.146362 121.300049 61.599976 C 121.300049 60.053589 122.553589 58.799988 124.099976 58.799988 C 125.646362 58.799988 126.900024 60.053589 126.900024 61.599976 Z"/>
        </g>
    </g>
</svg>
