<svg width="101" height="253" viewBox="0 0 101 253" xmlns="http://www.w3.org/2000/svg" xmlns:xlink="http://www.w3.org/1999/xlink">
    <g id="XMLID31">
        <g id="XMLID476">
            <path id="XMLID817" fill="#000000" stroke="none" d="M 82.800049 146.099976 L 80.699951 144 L 80.699951 35.5 L 80.699951 30.900024 L 77.5 27.700012 L 58 8.200012 L 50.199951 0.400024 L 42.400024 8.200012 L 22.900024 27.700012 L 19.699951 30.900024 L 19.699951 35.5 L 19.699951 144 L 17.599976 146.099976 L -0 127 L -0 155.099976 L -0 191.700012 L -0 202.700012 L 10.900024 202.700012 L 10.900024 213.700012 L 10.900024 218.299988 L 14.099976 221.5 L 25.199951 232.599976 L 25.199951 237.200012 L 25.199951 241.799988 L 28.400024 245 L 32.5 249.099976 L 35.699951 252.299988 L 40.300049 252.299988 L 50.099976 252.299988 L 59.900024 252.299988 L 64.400024 252.299988 L 67.599976 249.200012 L 71.800049 245.099976 L 75.099976 241.900024 L 75.099976 237.299988 L 75.099976 232.700012 L 86.199951 221.599976 L 89.400024 218.400024 L 89.400024 213.799988 L 89.400024 202.799988 L 100.300049 202.799988 L 100.300049 191.799988 L 100.300049 155.200012 L 100.300049 127 L 82.800049 146.099976 Z M 69.699951 88.599976 L 62.400024 81.299988 L 62.400024 28.099976 L 69.699951 35.400024 L 69.699951 88.599976 Z M 57 22.700012 L 57 83.599976 L 61.699951 88.299988 L 69.800049 96.400024 L 69.800049 104 L 61.699951 95.900024 L 61.699951 103.700012 L 69.800049 111.799988 L 69.800049 119.099976 L 61.699951 111 L 61.699951 118.799988 L 69.800049 126.900024 L 69.800049 132.599976 L 61.699951 124.5 L 61.699951 132.299988 L 69.800049 140.400024 L 69.800049 148.700012 L 73.599976 152.5 L 60.099976 166 L 60.099976 173.400024 L 50.300049 173.400024 L 40.599976 173.400024 L 40.599976 166 L 27 152.400024 L 30.800049 148.599976 L 30.800049 140.299988 L 38.900024 132.200012 L 38.900024 124.400024 L 30.800049 132.5 L 30.800049 126.799988 L 38.900024 118.700012 L 38.900024 111 L 30.800049 119.099976 L 30.800049 111.799988 L 38.900024 103.700012 L 38.900024 95.900024 L 30.800049 104 L 30.800049 96.400024 L 38.900024 88.299988 L 43.599976 83.599976 L 43.599976 22.700012 L 50.300049 16 L 57 22.700012 Z M 78.599976 209.900024 L 59.800049 191.099976 L 59.800049 191.099976 C 57.400024 188.5 54.099976 186.900024 50.300049 186.900024 C 46.5 186.900024 43.099976 188.5 40.800049 191.099976 L 40.800049 191.099976 L 22 209.900024 L 22 196 L 39.199951 178.799988 L 50.300049 178.799988 L 61.400024 178.799988 L 78.599976 196 L 78.599976 209.900024 Z M 50.300049 192.400024 C 54.300049 192.400024 57.599976 195.700012 57.599976 199.700012 C 57.599976 203.700012 54.300049 207 50.300049 207 C 46.300049 207 43 203.700012 43 199.700012 C 43 195.700012 46.199951 192.400024 50.300049 192.400024 Z M 30.800049 35.5 L 38.099976 28.200012 L 38.099976 81.400024 L 30.800049 88.700012 L 30.800049 35.5 Z M 11.099976 191.700012 L 11.099976 185.099976 L 15.300049 180.900024 L 15.300049 168.5 L 11.099976 164.299988 L 11.099976 155 L 17.400024 161.799988 L 23.199951 156 L 35.099976 167.900024 L 35.099976 174.799988 L 18.400024 191.5 L 11.099976 191.5 Z M 64.199951 237.200012 L 60 241.299988 L 50.199951 241.299988 L 40.400024 241.299988 L 36.300049 237.200012 L 36.300049 230 L 40.400024 225.900024 L 50.199951 225.900024 L 50.199951 225.900024 L 60 225.900024 L 64.099976 230 L 64.099976 237.200012 Z M 67.099976 225.200012 L 62.400024 220.5 L 50.300049 220.5 L 50.300049 220.5 L 38.199951 220.5 L 33.5 225.200012 L 24 215.700012 L 37.699951 202 C 38.800049 208 44 212.5 50.300049 212.5 C 56.599976 212.5 61.800049 207.900024 62.900024 202 L 76.599976 215.700012 L 67.099976 225.200012 Z M 89.5 191.700012 L 82.099976 191.700012 L 65.599976 175.200012 L 65.599976 168.200012 L 77.5 156.299988 L 83.199951 162 L 89.5 155.200012 L 89.5 164.5 L 85.300049 168.700012 L 85.300049 181 L 89.5 185.200012 L 89.5 191.700012 Z"/>
        </g>
    </g>
</svg>
