<svg width="210" height="357" viewBox="0 0 210 357" xmlns="http://www.w3.org/2000/svg" xmlns:xlink="http://www.w3.org/1999/xlink">
    <g id="XMLID163">
        <path id="XMLID383" fill="#000000" stroke="none" d="M 186.700012 186.400024 L 186.700012 159.900024 L 186.700012 155 L 183.299988 151.599976 L 174.400024 142.700012 L 168.5 136.799988 L 161 140.5 L 142.299988 149.799988 L 137.400024 152.200012 C 135.099976 151.5 132.799988 150.799988 130.5 150.200012 L 140.599976 138.700012 L 143.5 135.400024 L 143.5 131 L 143.5 120.099976 L 143.5 115.200012 L 140.099976 111.799988 L 138.400024 110.099976 L 138.400024 56.299988 L 138.400024 53 L 136.5 50.099976 L 114.799988 16.299988 L 104.900024 0.899994 L 95 16.299988 L 73.299988 50.099976 L 71.400024 53 L 71.400024 56.400024 L 71.400024 110.200012 L 69.700012 111.900024 L 66.299988 115.299988 L 66.299988 120.200012 L 66.299988 131.099976 L 66.299988 135.5 L 69.200012 138.799988 L 79.200012 150.400024 C 76.700012 151 74.299988 151.700012 71.900024 152.5 L 66.599976 149.900024 L 47.900024 140.599976 L 40.400024 136.900024 L 34.5 142.799988 L 25.599976 151.700012 L 22.200012 155.099976 L 22.200012 160 L 22.200012 187.700012 C 8 206 0.200012 228.700012 0.200012 251.900024 C 0.200012 279.900024 11.099976 306.200012 30.900024 326 C 50.700012 345.799988 77 356.700012 105 356.700012 C 133 356.700012 159.299988 345.799988 179.099976 326 C 198.900024 306.200012 209.799988 279.900024 209.799988 251.900024 C 209.700012 228 201.599976 205 186.700012 186.400024 Z M 78.099976 131.099976 L 78.099976 120.200012 L 83.200012 115.099976 L 83.200012 56.5 L 104.900024 22.700012 L 126.599976 56.5 L 126.599976 115.099976 L 131.700012 120.200012 L 131.700012 131.099976 L 118.200012 146.400024 L 118.200012 150 L 113.099976 150 L 113.099976 96.799988 C 116 94.400024 117.799988 90.799988 117.799988 86.799988 C 117.799988 79.700012 112 73.900024 104.900024 73.900024 C 97.799988 73.900024 92 79.700012 92 86.799988 C 92 90.799988 93.799988 94.400024 96.700012 96.799988 L 96.700012 150 L 91.599976 150 L 91.599976 146.700012 L 78.099976 131.099976 Z M 123.299988 288.5 L 115.099976 278.900024 L 94.900024 278.900024 L 86.700012 288.5 C 73.599976 281.799988 64.5 268.099976 64.5 252.400024 C 64.5 230.099976 82.700012 211.900024 105 211.900024 C 127.299988 211.900024 145.5 230.099976 145.5 252.400024 C 145.400024 268.200012 136.400024 281.799988 123.299988 288.5 Z M 117.599976 290.900024 C 113.599976 292.200012 109.400024 292.900024 104.900024 292.900024 C 100.5 292.900024 96.200012 292.200012 92.200012 290.900024 L 97.5 284.799988 L 112.299988 284.799988 L 117.599976 290.900024 Z M 86.599976 177.099976 L 91.5 177.099976 L 91.5 186.700012 L 102 198 L 102 206.099976 C 96.5 206.400024 91.299988 207.700012 86.5 209.799988 L 86.5 177.099976 Z M 104.900024 192.599976 L 97.299988 184.400024 L 97.299988 177.099976 L 112.599976 177.099976 L 112.599976 184.400024 L 104.900024 192.599976 Z M 107.900024 206.200012 L 107.900024 198 L 118.5 186.700012 L 118.5 177.099976 L 123.400024 177.099976 L 123.400024 209.900024 C 118.5 207.799988 113.299988 206.5 107.900024 206.200012 Z M 123.299988 171.299988 L 118.400024 171.299988 L 91.400024 171.299988 L 86.5 171.299988 L 86.5 160.799988 C 88.200012 160.5 89.799988 160.200012 91.5 159.900024 L 91.5 155.900024 L 102.5 155.900024 L 102.5 99.599976 C 103.299988 99.700012 104.099976 99.799988 104.900024 99.799988 C 105.700012 99.799988 106.5 99.700012 107.299988 99.599976 L 107.299988 155.900024 L 118.299988 155.900024 L 118.299988 159.900024 C 120 160.099976 121.700012 160.5 123.299988 160.799988 L 123.299988 171.299988 Z M 104.900024 93.799988 C 101 93.799988 97.799988 90.599976 97.799988 86.700012 C 97.799988 82.799988 101 79.599976 104.900024 79.599976 C 108.799988 79.599976 112 82.799988 112 86.700012 C 112 90.599976 108.799988 93.799988 104.900024 93.799988 Z M 104.900024 345 C 96.099976 345 87.5 343.799988 79.400024 341.5 L 89.200012 331.700012 L 120.599976 331.700012 L 130.400024 341.5 C 122.299988 343.700012 113.799988 345 104.900024 345 Z M 136.700012 339.400024 L 123.099976 325.799988 L 86.799988 325.799988 L 73.200012 339.400024 C 37.5 326.400024 11.900024 292.200012 11.900024 251.900024 C 11.900024 229 20.200012 208 33.900024 191.799988 L 33.900024 159.900024 L 42.799988 151 L 61.299988 160.200012 L 61.299988 181.799988 L 52.299988 191 L 34.799988 208.700012 L 34.799988 217 L 64.200012 187.200012 L 69 192 L 69 183.700012 L 67.200012 181.799988 L 67.200012 166.900024 C 71.599976 165 76.099976 163.299988 80.799988 162.099976 L 80.799988 212.900024 C 67.5 221.099976 58.700012 235.700012 58.700012 252.400024 C 58.700012 260.200012 60.700012 267.599976 64.099976 274 L 60.5 277.599976 L 73.299988 290.400024 L 75.599976 288.099976 C 83.599976 294.700012 93.900024 298.700012 105 298.700012 C 116.200012 298.700012 126.400024 294.700012 134.5 288.099976 L 136.799988 290.400024 L 149.599976 277.599976 L 146 274 C 149.400024 267.5 151.400024 260.200012 151.400024 252.400024 C 151.400024 235.700012 142.5 221.099976 129.299988 212.900024 L 129.299988 162.099976 C 133.799988 163.299988 138.099976 164.900024 142.299988 166.700012 L 142.299988 181.799988 L 140.5 183.700012 L 140.5 192 L 145.299988 187.200012 L 174.700012 217 L 174.700012 208.700012 L 157.099976 191 L 148.099976 181.799988 L 148.099976 160 L 166.099976 151.099976 L 175 160 L 175 190.700012 C 189.299988 207.099976 198 228.5 198 252 C 198 292.200012 172.5 326.400024 136.700012 339.400024 Z"/>
        <path id="XMLID393" fill="#000000" stroke="none" d="M 157.099976 162.700012 L 157.099976 169.200012 L 163.099976 166.299988 L 164.299988 167.5 L 164.299988 183.799988 L 170.200012 177.900024 L 170.200012 165.099976 L 164.400024 159.200012 Z"/>
        <path id="XMLID394" fill="#000000" stroke="none" d="M 45 167.5 L 46.200012 166.299988 L 52.299988 169.200012 L 52.299988 162.700012 L 45 159.200012 L 39.200012 165.099976 L 39.200012 177.900024 L 45 183.799988 Z"/>
    </g>
</svg>
