<svg width="266" height="301" viewBox="0 0 266 301" xmlns="http://www.w3.org/2000/svg" xmlns:xlink="http://www.w3.org/1999/xlink">
    <g id="XMLID162">
        <path id="XMLID331" fill="#000000" stroke="none" d="M 258.100006 88.900024 C 253.200012 75.099976 246.100006 62.299988 237 50.799988 C 218.799988 27.799988 193.100006 11.400024 164.799988 4.400024 L 150.299988 0.799988 L 150.299988 15.700012 L 150.299988 102.400024 L 150.299988 107.299988 L 153.700012 110.700012 L 160.299988 117.299988 L 160.299988 142.299988 L 149.600006 153 L 143.200012 142.400024 L 133.299988 126.099976 L 123.200012 142.299988 L 116.399994 153.099976 L 105.600006 142.299988 L 105.600006 117.299988 L 112.200012 110.700012 L 115.600006 107.299988 L 115.600006 102.400024 L 115.600006 15.700012 L 115.600006 0.799988 L 101.100006 4.400024 C 72.800003 11.400024 47.100006 27.799988 28.899994 50.799988 C 19.800003 62.299988 12.699997 75.099976 7.800003 88.900024 C 2.699997 103.099976 0.199997 118.099976 0.199997 133.299988 C 0.199997 190.5 36.800003 240.900024 90.299988 259 L 90.299988 261.200012 L 90.299988 266.099976 L 93.700012 269.5 L 102.799988 278.599976 L 106.200012 282 L 111.100006 282 L 113.799988 282 L 124.899994 292.599976 L 133 300.400024 L 141.100006 292.599976 L 152.200012 282 L 154.899994 282 L 159.799988 282 L 163.200012 278.599976 L 172.299988 269.5 L 175.700012 266.099976 L 175.700012 261.200012 L 175.700012 259 C 229.200012 240.900024 265.799988 190.5 265.799988 133.299988 C 265.700012 118.099976 263.100006 103.200012 258.100006 88.900024 Z M 166.799988 249.599976 L 156.299988 252 L 109.700012 252 L 99.200012 249.599976 L 99.200012 249.599976 C 97.399994 249.099976 95.600006 248.5 93.799988 247.900024 L 107.600006 234.099976 L 107.600006 207.099976 C 115.799988 210 124.399994 211.400024 133.200012 211.400024 C 141.899994 211.400024 150.399994 210 158.5 207.200012 L 158.5 234.099976 L 172.299988 247.900024 C 170.399994 248.5 168.600006 249.099976 166.799988 249.599976 Z M 104 60.900024 C 90.399994 66.299988 79 75.400024 70.600006 86.599976 L 52.100006 68.099976 C 65.199997 52.200012 83.100006 40.200012 104 34.200012 L 104 60.900024 Z M 67.199997 91.599976 C 64 96.599976 61.5 101.900024 59.5 107.5 L 34.399994 99.599976 C 37.800003 90 42.600006 81 48.5 72.900024 L 67.199997 91.599976 Z M 57.800003 113.099976 C 56.199997 119.099976 55.300003 125.299988 55.100006 131.700012 L 28.5 131.700012 C 28.699997 122.5 30.199997 113.599976 32.600006 105.200012 L 57.800003 113.099976 Z M 22.699997 131.700012 L 12 131.700012 C 12.199997 120.799988 13.699997 110.200012 16.600006 100.099976 L 27.100006 103.400024 C 24.399994 112.5 22.899994 122.099976 22.699997 131.700012 Z M 55.199997 137.5 C 55.600006 146.099976 57.5 154.5 60.699997 162.5 L 21.699997 181.099976 C 15.899994 167.700012 12.5 153 12 137.5 L 55.199997 137.5 Z M 48.600006 174.799988 L 59.100006 185.299988 L 37.199997 207.200012 C 32.199997 200.700012 27.800003 193.700012 24.199997 186.299988 L 48.600006 174.799988 Z M 54.199997 172.099976 L 65.199997 166.900024 L 79.199997 166.900024 L 101.700012 185.200012 L 101.700012 231.700012 L 89.899994 243.5 L 89.899994 207.900024 L 54.199997 172.099976 Z M 84 210.299988 L 84 244.099976 C 73.300003 239.299988 63.300003 233.099976 54.5 225.5 L 76.899994 203.099976 L 84 210.299988 Z M 119 257.799988 L 119 270.099976 L 114 270.099976 L 114 257.799988 L 119 257.799988 Z M 124.899994 257.799988 L 129.899994 257.799988 L 129.899994 270.099976 L 124.899994 270.099976 L 124.899994 257.799988 Z M 135.700012 257.799988 L 140.700012 257.799988 L 140.700012 270.099976 L 135.700012 270.099976 L 135.700012 257.799988 Z M 146.600006 270.200012 L 146.600006 257.900024 L 151.600006 257.900024 L 151.600006 270.200012 L 146.600006 270.200012 Z M 121.399994 196.099976 L 128.899994 205.400024 C 124.899994 205.200012 121 204.599976 117.100006 203.700012 L 121.399994 196.099976 Z M 144.399994 196.099976 L 148.799988 203.900024 C 144.899994 204.799988 140.799988 205.299988 136.799988 205.5 L 144.399994 196.099976 Z M 189.100006 203.099976 L 211.5 225.5 C 202.700012 233 192.700012 239.299988 182 244.099976 L 182 210.299988 L 189.100006 203.099976 Z M 176.100006 207.799988 L 176.100006 243.400024 L 164.299988 231.599976 L 164.299988 185.099976 L 186.799988 166.799988 L 200.799988 166.799988 L 211.799988 172 L 176.100006 207.799988 Z M 162 34.400024 C 183 40.5 200.799988 52.700012 213.899994 68.700012 L 195.799988 86.799988 C 187.299988 75.400024 175.700012 66.299988 162 60.799988 L 162 34.400024 Z M 217.5 73.400024 C 223.299988 81.400024 228 90.299988 231.299988 99.799988 L 206.799988 107.5 C 204.799988 101.900024 202.299988 96.599976 199.100006 91.700012 L 217.5 73.400024 Z M 211.200012 131.700012 C 211.100006 125.299988 210.200012 119.099976 208.5 113.099976 L 233 105.400024 C 235.399994 113.799988 236.799988 122.599976 237.100006 131.700012 L 211.200012 131.700012 Z M 217.399994 174.799988 L 241.799988 186.400024 C 238.200012 193.799988 233.799988 200.799988 228.899994 207.200012 L 207 185.299988 L 217.399994 174.799988 Z M 205.5 162.700012 C 208.799988 154.700012 210.600006 146.200012 211.100006 137.5 L 253.899994 137.5 C 253.399994 152.900024 250 167.599976 244.200012 181.099976 L 205.5 162.700012 Z M 243 131.700012 C 242.799988 122.099976 241.299988 112.700012 238.700012 103.700012 L 249.5 100.299988 C 252.299988 110.299988 253.899994 120.799988 254.100006 131.700012 L 243 131.700012 Z M 247.700012 94.599976 L 236.899994 98 C 233.299988 87.799988 228.200012 78.099976 221.600006 69.200012 L 229.899994 60.900024 C 237.5 71.099976 243.5 82.400024 247.700012 94.599976 Z M 226.299988 56.299988 L 218 64.599976 C 203.5 47 183.799988 34.299988 162 28.299988 L 162 15.900024 C 187.600006 22.099976 210 36.599976 226.299988 56.299988 Z M 155.799988 173.200012 L 155.799988 163.400024 L 172 147.200012 L 172 112.5 L 162 102.5 L 162 67.099976 C 188.200012 78.5 205.399994 104.5 205.399994 133.299988 C 205.399994 142.900024 203.5 152.200012 199.899994 161 L 184.700012 161 L 158.399994 182.299988 L 158.399994 201 C 157.100006 201.5 155.899994 201.900024 154.600006 202.299988 L 147.799988 190.099976 L 147.799988 177.5 L 155.799988 173.200012 Z M 141.899994 163.099976 L 141.899994 189.900024 L 132.799988 201.099976 L 123.799988 190 L 123.799988 163.599976 L 133.100006 148.700012 L 141.899994 163.099976 Z M 110.100006 163.400024 L 110.100006 173.200012 L 118 177.5 L 118 190.200012 L 111.299988 202.200012 C 110 201.799988 108.799988 201.400024 107.600006 200.900024 L 107.600006 182.400024 L 81.299988 161.099976 L 66.5 161.099976 C 62.800003 152.299988 61 143 61 133.400024 C 61 104.599976 78.100006 78.799988 104.100006 67.299988 L 104.100006 102.5 L 94.100006 112.5 L 94.100006 147.200012 L 110.100006 163.400024 Z M 104 15.900024 L 104 28.200012 C 82.299988 34.099976 62.600006 46.700012 48.100006 64.099976 L 40 56 C 56.199997 36.5 78.5 22.099976 104 15.900024 Z M 36.300003 60.599976 L 44.399994 68.700012 C 37.800003 77.599976 32.600006 87.400024 28.899994 97.799988 L 18.300003 94.5 C 22.5 82.200012 28.600006 70.799988 36.300003 60.599976 Z M 40.899994 211.900024 L 63.300003 189.5 L 72.800003 199 L 50.199997 221.599976 C 46.899994 218.5 43.800003 215.299988 40.899994 211.900024 Z M 102.100006 261.299988 L 102.100006 261 L 102.100006 261.299988 L 105.200012 257.799988 L 108.100006 257.799988 L 108.100006 267.299988 L 102.100006 261.299988 Z M 133 284.200012 L 124.399994 276 L 141.5 276 L 133 284.200012 Z M 157.5 267.599976 L 157.5 257.799988 L 160.799988 257.799988 L 163.799988 261.299988 L 163.799988 261.299988 L 163.799988 261.299988 L 157.5 267.599976 Z M 215.799988 221.599976 L 193.200012 199 L 202.700012 189.5 L 225.100006 211.900024 C 222.200012 215.200012 219.100006 218.5 215.799988 221.599976 Z"/>
        <path id="XMLID366" fill="#000000" stroke="none" d="M 194.899994 150.599976 C 194.899994 152.20166 193.601624 153.5 192 153.5 C 190.398376 153.5 189.100006 152.20166 189.100006 150.599976 C 189.100006 148.998413 190.398376 147.700012 192 147.700012 C 193.601624 147.700012 194.899994 148.998413 194.899994 150.599976 Z"/>
        <path id="XMLID367" fill="#000000" stroke="none" d="M 77.399994 150.599976 C 77.399994 152.20166 76.101624 153.5 74.5 153.5 C 72.898376 153.5 71.600006 152.20166 71.600006 150.599976 C 71.600006 148.998413 72.898376 147.700012 74.5 147.700012 C 76.101624 147.700012 77.399994 148.998413 77.399994 150.599976 Z"/>
    </g>
</svg>
