<svg width="172" height="310" viewBox="0 0 172 310" xmlns="http://www.w3.org/2000/svg" xmlns:xlink="http://www.w3.org/1999/xlink">
    <g id="XMLID277">
        <g id="XMLID271">
            <g id="XMLID282">
                <path id="XMLID408" fill="#000000" stroke="none" d="M 151.100006 12.400024 L 159.899994 21.200012 L 159.899994 44.299988 L 120 84.200012 L 120 118.400024 L 127.100006 125.5 L 127.100006 280.200012 L 114.700012 292.599976 L 104.700012 282.599976 L 101.300003 279 L 101.300003 140.299988 L 109.100006 132.5 L 109.100006 118 L 92.300003 134.799988 L 85.899994 134.799988 L 79.5 134.799988 L 62.600006 118 L 62.600006 132.400024 L 70.399994 140.200012 L 70.399994 278.900024 L 67 282.5 L 57 292.5 L 44.600006 280.099976 L 44.600006 125.400024 L 51.699997 118.299988 L 51.699997 84.099976 L 11.800003 44.200012 L 11.800003 21.099976 L 20.600006 12.299988 L 85.899994 12.299988 L 151.100006 12.299988 M 156 0.700012 L 151.100006 0.700012 L 85.800003 0.700012 L 20.5 0.700012 L 15.600006 0.700012 L 12.199997 4.099976 L 3.399994 12.900024 L 0 16.299988 L 0 21.200012 L 0 44.299988 L 0 49.200012 L 3.399994 52.599976 L 39.899994 89.099976 L 39.899994 113.599976 L 36.300003 117.200012 L 32.899994 120.599976 L 32.899994 125.5 L 32.899994 280.200012 L 32.899994 285.099976 L 36.300003 288.5 L 48.699997 300.900024 L 57 309.200012 L 65.300003 300.900024 L 75.300003 290.900024 L 75.399994 290.799988 L 75.5 290.700012 L 78.899994 287.099976 L 82.100006 283.700012 L 82.100006 279 L 82.100006 146.5 L 85.800003 146.5 L 89.5 146.5 L 89.5 278.900024 L 89.5 283.599976 L 92.699997 287 L 96.100006 290.599976 L 96.199997 290.700012 L 96.300003 290.799988 L 106.299988 300.799988 L 114.600006 309.099976 L 122.899994 300.799988 L 135.299988 288.400024 L 138.700012 285 L 138.700012 280.099976 L 138.700012 125.400024 L 138.700012 120.5 L 135.299988 117.099976 L 131.700012 113.5 L 131.700012 89 L 168.200012 52.5 L 171.600006 49.099976 L 171.600006 44.200012 L 171.600006 21.099976 L 171.600006 16.200012 L 168.200012 12.799988 L 159.399994 4 L 156 0.700012 L 156 0.700012 Z"/>
            </g>
        </g>
        <g id="XMLID269">
            <path id="XMLID308" fill="#000000" stroke="none" d="M 40.600006 52.099976 L 35.800003 47.200012 L 52.5 30.5 L 52.5 10.799988 L 59.300003 10.799988 L 59.300003 33.400024 Z"/>
        </g>
        <g id="XMLID273">
            <g id="XMLID310">
                <path id="XMLID312" fill="#000000" stroke="none" d="M 74.800003 100.099976 L 74.800003 82.099976 L 41 48.299988 L 41 9.299988 L 34.199997 9.299988 L 34.199997 51.200012 L 68 85 L 68 102.900024 L 71.199997 106.200012 L 80.899994 106.200012 Z"/>
                <path id="XMLID314" fill="#000000" stroke="none" d="M 104.600006 85 L 138.399994 51.200012 L 138.399994 9.299988 L 131.600006 9.299988 L 131.600006 48.299988 L 97.800003 82.099976 L 97.800003 100.099976 L 91.699997 106.200012 L 101.399994 106.200012 L 104.600006 102.900024 Z"/>
                <path id="XMLID316" fill="#000000" stroke="none" d="M 81.787918 120.102295 L 86.242645 115.647583 L 90.697357 120.102295 L 86.242645 124.557007 Z"/>
            </g>
            <g id="XMLID274">
                <path id="XMLID306" fill="#000000" stroke="none" d="M 132 52.099976 L 113.299988 33.400024 L 113.299988 10.799988 L 120.100006 10.799988 L 120.100006 30.5 L 136.799988 47.200012 Z"/>
            </g>
        </g>
        <g id="XMLID287">
            <path id="XMLID305" fill="#000000" stroke="none" d="M 50.905167 108.870392 L 77.774963 135.740204 L 72.96669 140.548492 L 46.096893 113.67868 Z"/>
        </g>
        <g id="XMLID280">
            <path id="XMLID304" fill="#000000" stroke="none" d="M 120.88858 108.890839 L 125.69754 113.698456 L 98.831543 140.572052 L 94.022568 135.764435 Z"/>
        </g>
        <g id="XMLID272">
            <path id="XMLID378" fill="#000000" stroke="none" d="M 72.399994 39 C 72.399994 41.043457 70.743454 42.700012 68.699997 42.700012 C 66.65654 42.700012 65 41.043457 65 39 C 65 36.956543 66.65654 35.299988 68.699997 35.299988 C 70.743454 35.299988 72.399994 36.956543 72.399994 39 Z"/>
        </g>
        <g id="XMLID279">
            <path id="XMLID376" fill="#000000" stroke="none" d="M 108 39 C 108 41.043457 106.343445 42.700012 104.299988 42.700012 C 102.256546 42.700012 100.600006 41.043457 100.600006 39 C 100.600006 36.956543 102.256546 35.299988 104.299988 35.299988 C 106.343445 35.299988 108 36.956543 108 39 Z"/>
        </g>
        <g id="XMLID278">
            <path id="XMLID303" fill="#000000" stroke="none" d="M 128.994324 227.133957 L 133.803284 231.941544 L 101.139877 264.614197 L 96.330917 259.80661 Z"/>
        </g>
        <g id="XMLID284">
            <path id="XMLID302" fill="#000000" stroke="none" d="M 42.695602 227.143997 L 75.363617 259.812012 L 70.555344 264.6203 L 37.887329 231.952271 Z"/>
        </g>
        <g id="XMLID286">
            <path id="XMLID301" fill="#000000" stroke="none" d="M 129.009918 205.84021 L 133.818878 210.647797 L 101.155472 243.32045 L 96.346512 238.512848 Z"/>
        </g>
        <g id="XMLID285">
            <path id="XMLID300" fill="#000000" stroke="none" d="M 42.711716 205.850876 L 75.379745 238.51889 L 70.571472 243.327164 L 37.903442 210.659149 Z"/>
        </g>
        <g id="XMLID276">
            <path id="XMLID299" fill="#000000" stroke="none" d="M 147.399994 9.299988 L 154.200012 9.299988 L 154.200012 57.900024 L 147.399994 57.900024 Z"/>
        </g>
        <g id="XMLID289">
            <path id="XMLID298" fill="#000000" stroke="none" d="M 17.399994 9.299988 L 24.199997 9.299988 L 24.199997 57.900024 L 17.399994 57.900024 Z"/>
        </g>
        <g id="XMLID290">
            <g id="XMLID288">
                <path id="XMLID323" fill="#000000" stroke="none" d="M 124 143.900024 L 130.5 143.900024 L 130.5 151.099976 L 124 151.099976 Z"/>
            </g>
            <g id="XMLID291">
                <path id="XMLID321" fill="#000000" stroke="none" d="M 124 153.799988 L 130.5 153.799988 L 130.5 161 L 124 161 Z"/>
            </g>
            <g id="XMLID292">
                <path id="XMLID319" fill="#000000" stroke="none" d="M 124 181.400024 L 130.5 181.400024 L 130.5 188.599976 L 124 188.599976 Z"/>
            </g>
        </g>
        <g id="XMLID294">
            <g id="XMLID297">
                <path id="XMLID315" fill="#000000" stroke="none" d="M 41.199997 143.900024 L 47.699997 143.900024 L 47.699997 151.099976 L 41.199997 151.099976 Z"/>
            </g>
            <g id="XMLID296">
                <path id="XMLID311" fill="#000000" stroke="none" d="M 41.199997 153.799988 L 47.699997 153.799988 L 47.699997 161 L 41.199997 161 Z"/>
            </g>
            <g id="XMLID295">
                <path id="XMLID307" fill="#000000" stroke="none" d="M 41.199997 181.400024 L 47.699997 181.400024 L 47.699997 188.599976 L 41.199997 188.599976 Z"/>
            </g>
        </g>
    </g>
</svg>
