<svg width="278" height="246" viewBox="0 0 278 246" xmlns="http://www.w3.org/2000/svg" xmlns:xlink="http://www.w3.org/1999/xlink">
    <g id="XMLID87">
        <path id="XMLID208" fill="#000000" stroke="none" d="M 265.900024 159 L 265.900024 171 L 180.5 145.200012 L 170.099976 142 L 163.799988 66.5 L 168.099976 66.5 L 166.599976 53.400024 L 162.700012 19.700012 L 162 13.799988 L 156.900024 10.900024 L 144.900024 4.099976 L 139.099976 0.799988 L 133.299988 4.099976 L 121.299988 10.900024 L 116.200012 13.799988 L 115.5 19.700012 L 111.599976 53.400024 L 110.099976 66.5 L 114.400024 66.5 L 108.099976 142 L 97.700012 145.200012 L 12.099976 171 L 12.099976 159 L 0.400024 162.5 L 0.400024 174.5 L 0.400024 183.200012 L 0.400024 205.299988 L 0.400024 216.200012 L 0.400024 226.5 L 12.099976 227.299988 L 12.099976 217 L 105 223.5 L 105.5 230.200012 L 105.299988 231.299988 L 102.799988 245.099976 L 116.799988 245.099976 L 139 245.099976 L 161.099976 245.099976 L 175.099976 245.099976 L 172.599976 231.299988 L 172.5 230.599976 L 173 223.5 L 265.900024 217 L 265.900024 227.299988 L 277.599976 226.5 L 277.599976 216.200012 L 277.599976 205.299988 L 277.599976 183.200012 L 277.599976 174.5 L 277.599976 162.5 L 265.900024 159 Z M 265.900024 192.900024 L 235.700012 184.400024 L 194.700012 172.900024 C 194.700012 172.5 194.700012 172.099976 194.700012 171.599976 C 194.700012 168.099976 194.700012 164.299988 194.700012 161.799988 L 266 183.299988 L 266 192.900024 Z M 192.900024 161.200012 L 193.5 161.400024 C 193.299988 161.599976 193.099976 161.700012 192.799988 161.799988 L 192.900024 161.200012 Z M 127 21.200012 L 139 14.400024 L 151 21.200012 L 154.900024 54.900024 L 151 54.900024 L 127 54.900024 L 123.099976 54.900024 L 127 21.200012 Z M 85.200012 161.799988 C 84.900024 161.700012 84.700012 161.599976 84.5 161.400024 L 85.099976 161.200012 L 85.200012 161.799988 Z M 83.400024 161.700012 C 83.400024 164.099976 83.400024 168 83.400024 171.5 C 83.400024 171.900024 83.400024 172.400024 83.400024 172.799988 L 42.099976 184.400024 L 12.099976 192.799988 L 12.099976 183.200012 L 83.400024 161.700012 Z M 155.099976 233.5 L 153.900024 227 L 147.900024 227 L 149.099976 233.5 L 141.900024 233.5 L 141.900024 227 L 136 227 L 136 233.5 L 128.799988 233.5 L 130 227 L 124 227 L 122.799988 233.5 L 116.799988 233.5 L 118.700012 223 L 159.099976 223 L 161 233.5 L 155.099976 233.5 Z M 162 212.599976 L 161.700012 217.099976 L 116.299988 217.099976 L 116 212.599976 L 12.099976 205.400024 L 12.099976 198.900024 L 12.099976 199 L 42.599976 190.400024 L 89.099976 177.299988 L 89.099976 175.099976 C 89.099976 175.099976 89.099976 172.700012 89.099976 169.799988 C 89.099976 168.900024 89.099976 168 89.099976 167.099976 C 89.099976 165.099976 89.099976 163.099976 89.099976 161.599976 C 89.099976 161 89.099976 160.5 89.099976 160 L 100.799988 156.5 L 100.799988 166.299988 L 100.799988 166.299988 L 115.599976 161.799988 L 115.599976 152.799988 L 119.099976 148.099976 L 121.299988 122 L 124.299988 122.299988 L 124.799988 116.5 L 121.799988 116.200012 L 123 101.599976 L 126.099976 101.900024 L 126.599976 96.099976 L 123.5 95.799988 L 123.799988 91.700012 L 126.900024 92 L 127.400024 86.200012 L 124.299988 85.900024 L 126.400024 61.200012 L 151.400024 61.200012 L 153.5 85.900024 L 150.400024 86.200012 L 150.900024 92 L 154 91.700012 L 154.299988 95.799988 L 151.200012 96.099976 L 151.700012 101.900024 L 154.799988 101.599976 L 156 116.200012 L 153 116.5 L 153.5 122.299988 L 156.5 122 L 158.700012 148.099976 L 162.200012 152.799988 L 162.200012 161.799988 L 177 166.299988 L 177 166.299988 L 177 156.5 L 188.700012 160 C 188.700012 160.5 188.700012 161 188.700012 161.599976 C 188.700012 163.099976 188.700012 165.099976 188.700012 167.099976 C 188.700012 168 188.700012 168.900024 188.700012 169.799988 C 188.700012 172.700012 188.700012 175.099976 188.700012 175.099976 L 188.700012 177.200012 L 188.700012 177.299988 L 189.799988 177.599976 L 231 189.200012 L 265.700012 199 L 265.700012 198.900024 L 265.700012 205.400024 L 162 212.599976 Z"/>
        <path id="XMLID225" fill="#000000" stroke="none" d="M 143.5 153.299988 L 143.099976 152.900024 L 138.900024 148.799988 L 134.700012 152.900024 L 134.299988 153.299988 L 130.299988 157.200012 L 124.299988 163.099976 L 122.200012 165.200012 L 122.200012 202.299988 L 138.799988 213 L 155.400024 202.299988 L 155.400024 165.200012 L 153.299988 163.099976 L 147.299988 157.200012 L 143.5 153.299988 Z M 139 206.099976 L 128.299988 199.200012 L 128.299988 194.299988 L 149.799988 194.299988 L 149.799988 199.200012 L 139 206.099976 Z M 149.700012 167.700012 L 149.700012 188.400024 L 128.200012 188.400024 L 128.200012 167.700012 L 132.799988 163.099976 L 138.900024 157 L 145 163.099976 L 149.700012 167.700012 Z"/>
    </g>
</svg>
