<svg width="419" height="229" viewBox="0 0 419 229" xmlns="http://www.w3.org/2000/svg" xmlns:xlink="http://www.w3.org/1999/xlink">
    <g id="XMLID270">
        <path id="XMLID586" fill="#000000" stroke="none" d="M 414.599976 24.900024 L 403.099976 13.400024 L 399.699951 10 L 394.800049 10 L 374.5 10 L 368 3.5 L 364.599976 0.099976 L 359.699951 0.099976 L 221.699951 0.099976 L 216.800049 0.099976 L 213.400024 3.5 L 209.099976 7.799988 L 204.800049 3.5 L 201.400024 0.099976 L 196.5 0.099976 L 58.5 0.099976 L 53.599976 0.099976 L 50.200012 3.5 L 43.700012 10 L 23.400024 10 L 18.5 10 L 15.099976 13.400024 L 3.599976 24.900024 L 0.200012 28.299988 L 0.200012 33.200012 L 0.200012 143 L 0.200012 154.700012 L 11.900024 154.700012 L 107.900024 154.700012 L 107.700012 154.900024 L 104.299988 158.299988 L 104.299988 163.200012 L 104.299988 200.299988 L 104.299988 205.200012 L 107.700012 208.599976 L 124.299988 225.200012 L 127.700012 228.599976 L 132.599976 228.599976 L 141.099976 228.599976 L 153 228.599976 L 153 216.900024 L 153 212.299988 L 163.200012 212.299988 L 174.900024 212.299988 L 174.900024 200.599976 L 174.900024 188.799988 L 174.900024 183.900024 L 171.5 180.5 L 167.900024 176.900024 L 167.900024 175 L 169.200012 173.700012 L 172.599976 170.299988 L 172.599976 165.400024 L 172.599976 154.700012 L 175.200012 156.900024 L 178.5 159.599976 L 182.700012 159.599976 L 209.300049 159.599976 L 235.900024 159.599976 L 240.800049 159.599976 L 244.199951 156.200012 L 246 154.400024 L 246 165.5 L 246 170.400024 L 249.400024 173.799988 L 250.699951 175.099976 L 250.699951 176.900024 L 247.099976 180.5 L 243.699951 183.900024 L 243.699951 188.799988 L 243.699951 200.599976 L 243.699951 212.299988 L 255.400024 212.299988 L 265.599976 212.299988 L 265.599976 216.900024 L 265.599976 228.599976 L 277.300049 228.599976 L 285.800049 228.599976 L 290.699951 228.599976 L 294.099976 225.200012 L 310.699951 208.599976 L 314.099976 205.200012 L 314.099976 200.299988 L 314.099976 163.200012 L 314.099976 158.299988 L 310.699951 154.900024 L 310.5 154.700012 L 406.5 154.700012 L 418.199951 154.700012 L 418.199951 143 L 418.199951 33.200012 L 418.199951 28.299988 L 414.599976 24.900024 Z M 226.900024 11.900024 L 239.900024 11.900024 L 239.900024 50.400024 L 233.5 56.799988 L 226.900024 56.799988 L 226.900024 11.900024 Z M 178.5 11.900024 L 191.5 11.900024 L 191.5 56.799988 L 184.900024 56.799988 L 178.5 50.400024 L 178.5 11.900024 Z M 12.099976 33.200012 L 23.599976 21.700012 L 31.5 21.700012 L 31.5 143 L 12.200012 143 L 12.200012 33.200012 Z M 37.299988 104.5 L 48.599976 104.5 L 59 114.900024 L 59 125.400024 L 49.200012 125.400024 L 49.200012 143 L 37.299988 143 L 37.299988 104.5 Z M 118.400024 134.900024 L 118.400024 127.700012 L 125 134.299988 L 125 126 L 118.400024 119.400024 L 118.400024 94 L 121.599976 90.799988 L 141.599976 110.799988 L 141.599976 102.5 L 125.700012 86.599976 L 130.200012 82.099976 L 141.599976 93.5 L 141.599976 85.200012 L 136 79.599976 L 151.099976 79.599976 L 156.900024 85.400024 L 156.900024 118.799988 L 165 126.900024 L 165 143 L 160.799988 143 L 124.200012 143 L 116.900024 143 L 110.400024 143 L 118.400024 134.900024 Z M 160.799988 154.5 L 146.299988 154.5 L 146.299988 149.299988 L 160.799988 149.299988 L 160.799988 154.5 Z M 156.099976 170.200012 L 156.099976 178.299988 L 146.299988 178.299988 L 146.299988 160.400024 L 160.799988 160.400024 L 160.799988 165.5 L 156.099976 170.200012 Z M 116.200012 200.299988 L 116.200012 163.200012 L 124.200012 155.200012 L 124.200012 149.299988 L 140.400024 149.299988 L 140.400024 216.799988 L 132.799988 216.799988 L 116.200012 200.299988 Z M 163.200012 200.599976 L 146.299988 200.599976 L 146.299988 184.200012 L 158.5 184.200012 L 163.099976 188.799988 L 163.099976 200.599976 Z M 288.199951 82.099976 L 292.699951 86.599976 L 276.900024 102.400024 L 276.900024 110.700012 L 296.900024 90.700012 L 300.099976 93.900024 L 300.099976 119.5 L 293.5 126.099976 L 293.5 134.400024 L 300.099976 127.799988 L 300.099976 135 L 307.199951 142.099976 L 257.699951 142.099976 L 253.5 142.099976 L 253.5 127 L 261.599976 118.900024 L 261.599976 85.5 L 267.400024 79.700012 L 282.5 79.700012 L 276.900024 85.299988 L 276.900024 93.599976 L 288.199951 82.099976 Z M 257.599976 165.5 L 257.599976 160.400024 L 272.099976 160.400024 L 272.099976 178.299988 L 262.300049 178.299988 L 262.300049 170.200012 L 257.599976 165.5 Z M 272.099976 154.5 L 257.599976 154.5 L 257.599976 149.299988 L 272.099976 149.299988 L 272.099976 154.5 Z M 255.300049 200.599976 L 255.300049 188.799988 L 259.900024 184.200012 L 272.099976 184.200012 L 272.099976 200.599976 L 255.300049 200.599976 Z M 302.199951 200.299988 L 285.599976 216.900024 L 278 216.900024 L 278 149.400024 L 294.199951 149.400024 L 294.199951 155.299988 L 302.199951 163.299988 L 302.199951 200.299988 Z M 327.099976 87.099976 L 327.099976 87.099976 L 327.099976 143.099976 L 316.400024 143.099976 L 305.900024 132.599976 L 305.900024 91.599976 L 288.099976 73.799988 L 264.900024 73.799988 L 255.599976 83.099976 L 255.599976 116.5 L 247.5 124.599976 L 247.5 142 L 241.599976 142 L 237.900024 145.700012 L 237.900024 113.099976 L 226.5 101.700012 L 226.5 110 L 232 115.5 L 232 147.799988 L 209.099976 147.799988 L 186.200012 147.799988 L 186.200012 115.5 L 191.799988 109.900024 L 191.799988 101.599976 L 180.400024 113 L 180.400024 146 L 176.700012 142.900024 L 170.799988 142.900024 L 170.799988 124.400024 L 162.700012 116.299988 L 162.700012 83 L 153.400024 73.700012 L 130.200012 73.700012 L 112.400024 91.5 L 112.400024 132.5 L 102.099976 143 L 91.400024 143 L 91.400024 87 L 85.5 92.900024 L 85.5 143 L 55.099976 143 L 55.099976 131.200012 L 64.900024 131.200012 L 64.900024 112.400024 L 51.099976 98.599976 L 37.400024 98.599976 L 37.400024 21.700012 L 48.799988 21.700012 L 56.599976 13.900024 L 56.599976 87 L 62.5 81.099976 L 62.5 11.799988 L 79 11.799988 L 79 16.400024 L 91.099976 16.400024 L 91.099976 11.799988 L 98 11.799988 L 98 16.400024 L 110.099976 16.400024 L 110.099976 11.799988 L 133.599976 11.799988 L 133.599976 31.099976 L 98.400024 66.299988 L 98.400024 74.599976 L 139.400024 33.599976 L 139.400024 11.900024 L 172.599976 11.900024 L 172.599976 52.799988 L 182.400024 62.599976 L 197.300049 62.599976 L 197.300049 12.599976 L 209.099976 24.400024 L 220.900024 12.599976 L 220.900024 62.599976 L 235.800049 62.599976 L 245.599976 52.799988 L 245.599976 11.900024 L 278.800049 11.900024 L 278.800049 33.599976 L 319.800049 74.599976 L 319.800049 74.599976 L 319.800049 66.400024 L 284.599976 31.200012 L 284.599976 11.900024 L 308 11.900024 L 308 16.5 L 320.099976 16.5 L 320.099976 11.900024 L 327 11.900024 L 327 16.5 L 339.099976 16.5 L 339.099976 11.900024 L 355.800049 11.900024 L 355.800049 81.200012 L 361.699951 87.099976 L 361.699951 14 L 369.5 21.799988 L 380.900024 21.799988 L 380.900024 98.700012 L 367.199951 98.700012 L 353.400024 112.5 L 353.400024 131.299988 L 363.199951 131.299988 L 363.199951 143 L 333 143 L 333 92.900024 L 327.099976 87.099976 Z M 359.400024 125.400024 L 359.400024 114.900024 L 369.800049 104.5 L 381.099976 104.5 L 381.099976 143 L 369.199951 143 L 369.199951 125.299988 L 359.400024 125.299988 Z M 406.300049 143 L 387 143 L 387 21.700012 L 394.900024 21.700012 L 406.400024 33.200012 L 406.400024 143 Z"/>
        <path id="XMLID603" fill="#000000" stroke="none" d="M 127.599976 27.799988 C 127.599976 29.291199 126.391174 30.5 124.900024 30.5 C 123.408813 30.5 122.200012 29.291199 122.200012 27.799988 C 122.200012 26.308838 123.408813 25.099976 124.900024 25.099976 C 126.391174 25.099976 127.599976 26.308838 127.599976 27.799988 Z"/>
        <path id="XMLID604" fill="#000000" stroke="none" d="M 24.400024 35.5 C 24.400024 36.99115 23.191162 38.200012 21.700012 38.200012 C 20.208801 38.200012 19 36.99115 19 35.5 C 19 34.00885 20.208801 32.799988 21.700012 32.799988 C 23.191162 32.799988 24.400024 34.00885 24.400024 35.5 Z"/>
        <path id="XMLID605" fill="#000000" stroke="none" d="M 24.400024 132.299988 C 24.400024 133.791199 23.191162 135 21.700012 135 C 20.208801 135 19 133.791199 19 132.299988 C 19 130.808838 20.208801 129.599976 21.700012 129.599976 C 23.191162 129.599976 24.400024 130.808838 24.400024 132.299988 Z"/>
        <path id="XMLID606" fill="#000000" stroke="none" d="M 127.599976 18.799988 C 127.599976 20.291199 126.391174 21.5 124.900024 21.5 C 123.408813 21.5 122.200012 20.291199 122.200012 18.799988 C 122.200012 17.308838 123.408813 16.099976 124.900024 16.099976 C 126.391174 16.099976 127.599976 17.308838 127.599976 18.799988 Z"/>
        <path id="XMLID607" fill="#000000" stroke="none" d="M 296.199951 27.799988 C 296.199951 29.291199 294.991211 30.5 293.5 30.5 C 292.008789 30.5 290.800049 29.291199 290.800049 27.799988 C 290.800049 26.308838 292.008789 25.099976 293.5 25.099976 C 294.991211 25.099976 296.199951 26.308838 296.199951 27.799988 Z"/>
        <path id="XMLID608" fill="#000000" stroke="none" d="M 399.400024 35.5 C 399.400024 36.99115 398.191162 38.200012 396.699951 38.200012 C 395.208862 38.200012 394 36.99115 394 35.5 C 394 34.00885 395.208862 32.799988 396.699951 32.799988 C 398.191162 32.799988 399.400024 34.00885 399.400024 35.5 Z"/>
        <path id="XMLID609" fill="#000000" stroke="none" d="M 399.400024 132.299988 C 399.400024 133.791199 398.191162 135 396.699951 135 C 395.208862 135 394 133.791199 394 132.299988 C 394 130.808838 395.208862 129.599976 396.699951 129.599976 C 398.191162 129.599976 399.400024 130.808838 399.400024 132.299988 Z"/>
        <path id="XMLID610" fill="#000000" stroke="none" d="M 296.199951 18.799988 C 296.199951 20.291199 294.991211 21.5 293.5 21.5 C 292.008789 21.5 290.800049 20.291199 290.800049 18.799988 C 290.800049 17.308838 292.008789 16.099976 293.5 16.099976 C 294.991211 16.099976 296.199951 17.308838 296.199951 18.799988 Z"/>
    </g>
</svg>
