<svg width="244" height="275" viewBox="0 0 244 275" xmlns="http://www.w3.org/2000/svg" xmlns:xlink="http://www.w3.org/1999/xlink">
    <g id="XMLID20">
        <path id="XMLID196" fill="#000000" stroke="none" d="M 241.599976 156.200012 L 179.800049 23.5 L 176.599976 16.700012 L 171.699951 16.700012 L 171.699951 11.599976 L 175.199951 11.599976 L 175.199951 5.5 L 171.699951 5.5 L 171.699951 0.200012 L 160 0.200012 L 160 5.5 L 156.5 5.5 L 156.5 11.599976 L 160 11.599976 L 160 16.700012 L 153 16.700012 L 149.800049 23.400024 L 137 50.5 L 122 50.5 L 107 50.5 L 94.199951 23.400024 L 91 16.700012 L 84.199951 16.700012 L 84.199951 11.599976 L 87.699951 11.599976 L 87.699951 5.5 L 84.199951 5.5 L 84.199951 0.200012 L 72.5 0.200012 L 72.5 5.5 L 69 5.5 L 69 11.599976 L 72.5 11.599976 L 72.5 16.700012 L 67.300049 16.700012 L 64.099976 23.5 L 2.299988 156.200012 L 0.400024 160.299988 L 1.700012 164.599976 L 31 259.900024 L 35.5 274.5 L 48.400024 266.400024 L 74.300049 250.099976 L 74.300049 250.299988 L 87.400024 250.299988 L 121.900024 250.299988 L 156.400024 250.299988 L 169.5 250.299988 L 169.5 250.099976 L 195.400024 266.400024 L 208.300049 274.5 L 212.800049 259.900024 L 242.099976 164.599976 L 243.400024 160.299988 L 241.599976 156.200012 Z M 99.599976 62.299988 L 99.599976 62.299988 L 102.900024 69.5 L 108.900024 69.5 L 105.599976 62.299988 L 122 62.299988 L 138.400024 62.299988 L 135.099976 69.5 L 141.099976 69.5 L 145.800049 59.400024 L 160 29.299988 L 160 69.5 L 156.5 69.5 L 156.5 75.599976 L 160 75.599976 L 160 144.900024 L 144.699951 126.5 L 139.800049 126.5 L 137.300049 98.299988 L 122 98.299988 L 106.800049 98.299988 L 104.300049 126.5 L 99.400024 126.5 L 99.400024 126.5 L 99.400024 126.5 L 84.300049 144.5 L 84.300049 75.599976 L 87.800049 75.599976 L 87.800049 69.5 L 84.300049 69.5 L 84.300049 29.900024 L 99.599976 62.299988 Z M 104.300049 132.299988 L 122 132.299988 L 139.699951 132.299988 L 150.5 198.299988 L 122 198.299988 L 93.599976 198.299988 L 104.300049 132.299988 Z M 109.800049 126.400024 L 111.800049 103.700012 L 122 103.700012 L 132.199951 103.700012 L 134.199951 126.400024 L 122 126.400024 L 109.800049 126.400024 Z M 48.900024 252.299988 L 42.299988 256.5 L 13 161.200012 L 30.099976 124.599976 L 36.700012 127.700012 L 39 122.700012 L 32.400024 119.599976 L 33.5 117.299988 L 40.099976 120.400024 L 42.400024 115.400024 L 35.799988 112.299988 L 36.900024 110 L 43.5 113.099976 L 45.799988 108.099976 L 39.200012 105 L 40.299988 102.700012 L 46.900024 105.799988 L 49.200012 100.799988 L 42.599976 97.799988 L 72.699951 33.200012 L 72.699951 69.299988 L 69.199951 69.299988 L 69.199951 75.400024 L 72.699951 75.400024 L 72.699951 146.400024 L 54.699951 146.400024 L 43.599976 197.099976 L 48.5 202 L 59.400024 152.200012 L 72.699951 152.200012 L 72.699951 156.599976 L 69.199951 156.599976 L 69.199951 170.900024 L 69.199951 196 L 72 196 L 66.400024 214.900024 L 49.099976 227.700012 L 49.099976 235 L 71.5 218.5 L 78.099976 196.099976 L 81.800049 196.099976 L 88 171.200012 L 88 156.900024 L 84.5 156.900024 L 84.5 153 L 97.900024 136.599976 L 87.800049 198.299988 L 87.800049 198.299988 L 83.900024 230.5 L 48.900024 252.299988 Z M 122 238.599976 L 88.599976 238.599976 L 92.800049 204.200012 L 122.099976 204.200012 L 151.400024 204.200012 L 155.599976 238.599976 L 122 238.599976 Z M 201.699951 256.5 L 160.400024 230.5 L 156.5 198.299988 L 156.5 198.299988 L 146.400024 136.599976 L 160.099976 153.299988 L 160.099976 156.799988 L 156.599976 156.799988 L 156.599976 171.099976 L 162.800049 196 L 166.199951 196 L 172.800049 218.400024 L 195.199951 234.900024 L 195.199951 227.599976 L 177.900024 214.799988 L 172.300049 195.900024 L 175.300049 195.900024 L 175.300049 171 L 175.300049 156.700012 L 171.800049 156.700012 L 171.800049 152.299988 L 184.800049 152.299988 L 195.699951 202.099976 L 200.599976 197.200012 L 189.5 146.5 L 171.800049 146.5 L 171.800049 75.5 L 175.300049 75.5 L 175.300049 69.400024 L 171.800049 69.400024 L 171.800049 33.900024 L 201.599976 98 L 195.199951 101 L 197.5 106 L 203.900024 103 L 205 105.299988 L 198.599976 108.299988 L 200.900024 113.299988 L 207.300049 110.299988 L 208.400024 112.599976 L 202 115.599976 L 204.300049 120.599976 L 210.699951 117.599976 L 211.800049 119.900024 L 205.400024 122.900024 L 207.699951 127.900024 L 214.199951 124.900024 L 231.199951 161.5 L 201.699951 256.5 Z"/>
    </g>
</svg>
