<svg width="240" height="260" viewBox="0 0 240 260" xmlns="http://www.w3.org/2000/svg" xmlns:xlink="http://www.w3.org/1999/xlink">
    <g id="XMLID27">
        <g id="XMLID268">
            <path id="XMLID876" fill="#000000" stroke="none" d="M 236.100006 73.5 L 222.700012 60.099976 L 219.5 56.900024 L 214.899994 56.900024 L 189.899994 56.900024 L 189.200012 56.900024 L 165 6.700012 L 162 0.5 L 155.100006 0.5 L 133.100006 0.5 L 122.100006 0.5 L 122.100006 11.5 L 122.100006 44.5 L 119.799988 44.5 L 117.5 44.5 L 117.5 11.5 L 117.5 0.5 L 106.5 0.5 L 84.5 0.5 L 77.600006 0.5 L 74.600006 6.700012 L 50.399994 56.900024 L 49.699997 56.900024 L 24.699997 56.900024 L 20.100006 56.900024 L 16.899994 60.099976 L 3.5 73.5 L 0.300003 76.700012 L 0.300003 81.299988 L 0.300003 98.099976 L 0.300003 102.700012 L 3.5 105.900024 L 9.600006 112 L 9.600006 122.599976 L 9.600006 127.200012 L 12.800003 130.400024 L 20.600006 138.200012 L 20.600006 149.400024 C 20.600006 173.099976 28.899994 195.700012 44.199997 213.700012 L 44.199997 216.799988 L 38.699997 216.799988 L 38.699997 227.799988 L 38.699997 237.799988 L 38.699997 248.799988 L 49.699997 248.799988 L 55.199997 248.799988 L 68.800003 248.799988 L 76.399994 248.799988 L 76.399994 259.700012 L 87.399994 259.700012 L 152.200012 259.700012 L 163.200012 259.700012 L 163.200012 248.799988 L 170.799988 248.799988 L 184.399994 248.799988 L 189.899994 248.799988 L 200.899994 248.799988 L 200.899994 237.799988 L 200.899994 227.799988 L 200.899994 216.799988 L 195.399994 216.799988 L 195.399994 213.700012 C 210.600006 195.700012 219 173.099976 219 149.400024 L 219 138.200012 L 226.799988 130.400024 L 230 127.200012 L 230 122.599976 L 230 112 L 236.100006 105.900024 L 239.299988 102.700012 L 239.299988 98.099976 L 239.299988 81.299988 L 239.299988 76.700012 L 236.100006 73.5 Z M 149.600006 11.5 L 149.600006 16.900024 L 157.700012 16.900024 L 163 27.900024 L 157.899994 30.299988 L 162.600006 40.099976 L 167.700012 37.700012 L 170.100006 42.700012 L 165.100006 45.099976 L 169.799988 54.900024 L 174.799988 52.5 L 179.799988 63 L 174.700012 65.400024 L 177 70.200012 L 182.100006 67.799988 L 189.799988 83.799988 L 189.799988 68 L 209.600006 68 L 209.600006 73.400024 L 220.200012 73.400024 L 228.200012 81.400024 L 228.200012 86.799988 L 225 86.799988 L 216.100006 86.799988 L 203.100006 86.799988 L 208.600006 92.299988 L 216.100006 92.299988 L 216.100006 125.400024 L 209.5 132 L 168.200012 132 L 134.5 11.5 L 149.600006 11.5 Z M 208 146.599976 L 156.799988 170.799988 C 159.200012 165.599976 160.600006 159.700012 160.600006 153.599976 C 160.600006 147.900024 159.399994 142.400024 157.299988 137.5 L 164.200012 137.5 L 208 137.5 L 208 146.599976 Z M 122.799988 230.400024 L 116.700012 230.400024 L 116.700012 194.299988 C 117.700012 194.400024 118.700012 194.400024 119.799988 194.400024 C 120.899994 194.400024 121.899994 194.299988 122.899994 194.299988 L 122.899994 230.400024 Z M 119.799988 188.900024 C 100.300003 188.900024 84.5 173.099976 84.5 153.599976 C 84.5 134.099976 100.300003 118.299988 119.799988 118.299988 C 139.299988 118.299988 155.100006 134.099976 155.100006 153.599976 C 155.100006 173.099976 139.200012 188.900024 119.799988 188.900024 Z M 31.5 137.5 L 75.399994 137.5 L 82.300003 137.5 C 80.199997 142.400024 79 147.900024 79 153.599976 C 79 159.700012 80.399994 165.599976 82.800003 170.799988 L 31.600006 146.599976 L 31.600006 137.5 Z M 106.5 50.700012 L 106.5 50.700012 L 89.399994 126.400024 C 87.800003 128.099976 86.399994 130 85.199997 132 L 76.899994 132 L 106.399994 26.5 L 106.399994 50.700012 Z M 133.100006 26.5 L 162.600006 132 L 154.299988 132 C 153.100006 130 151.600006 128.099976 150.100006 126.400024 L 133.100006 50.700012 L 133 50.700012 L 133 26.5 Z M 143.100006 120.200012 C 137.200012 116.099976 130.100006 113.5 122.5 113 L 122.5 55.599976 L 128.600006 55.599976 L 143.100006 120.200012 Z M 117 112.900024 C 109.399994 113.400024 102.300003 116 96.399994 120.099976 L 110.899994 55.400024 L 117 55.400024 L 117 112.900024 Z M 11.199997 81.299988 L 19.199997 73.299988 L 30.100006 73.299988 L 30.100006 67.900024 L 49.699997 67.900024 L 49.699997 83.700012 L 57.300003 67.900024 L 62.100006 70.200012 L 64.399994 65.400024 L 59.600006 63.099976 L 64.600006 52.599976 L 69.300003 54.799988 L 72.300003 48.5 L 74 45 L 69.300003 42.799988 L 71.699997 37.799988 L 76.5 40.099976 L 81.199997 30.299988 L 76.399994 28 L 81.800003 16.900024 L 89.899994 16.900024 L 89.899994 11.5 L 104.899994 11.5 L 71.199997 132 L 29.899994 132 L 23.300003 125.400024 L 23.300003 92.299988 L 30.800003 92.299988 L 36.300003 86.799988 L 23.300003 86.799988 L 14.399994 86.799988 L 11.199997 86.799988 L 11.199997 81.299988 Z M 11.199997 98.200012 L 11.199997 92.299988 L 14.399994 92.299988 L 17.800003 92.299988 L 17.800003 104.700012 L 11.199997 98.200012 Z M 31.600006 152.700012 L 85.300003 178.099976 L 54.5 208.900024 C 40.899994 193.900024 32.399994 174.299988 31.600006 152.700012 Z M 68.800003 221.599976 L 68.800003 227.900024 L 68.800003 237.900024 L 55.199997 237.900024 L 49.699997 237.900024 L 49.699997 227.900024 L 55.199997 227.900024 L 62.100006 227.900024 L 55.199997 221 L 55.199997 216 L 89.899994 181.299988 C 95.5 187.400024 102.899994 191.700012 111.300003 193.5 L 111.300003 230.400024 L 84.5 230.400024 C 78.899994 228 73.600006 225 68.800003 221.599976 Z M 87.399994 235.900024 L 93.899994 235.900024 L 93.899994 248.700012 L 87.399994 248.700012 L 87.399994 235.900024 Z M 99.399994 235.900024 L 105.5 235.900024 L 105.5 248.700012 L 99.399994 248.700012 L 99.399994 235.900024 Z M 110.899994 235.900024 L 117 235.900024 L 117 248.700012 L 110.899994 248.700012 L 110.899994 235.900024 Z M 122.5 235.900024 L 128.600006 235.900024 L 128.600006 248.700012 L 122.5 248.700012 L 122.5 235.900024 Z M 134.100006 235.900024 L 140.200012 235.900024 L 140.200012 248.700012 L 134.100006 248.700012 L 134.100006 235.900024 Z M 152.200012 248.799988 L 145.700012 248.799988 L 145.700012 236 L 152.200012 236 L 152.200012 248.799988 Z M 189.899994 237.799988 L 184.399994 237.799988 L 170.799988 237.799988 L 170.799988 227.799988 L 170.799988 221.5 C 165.899994 225 160.700012 227.900024 155.100006 230.400024 L 128.299988 230.400024 L 128.299988 193.5 C 136.700012 191.700012 144.100006 187.400024 149.700012 181.299988 L 184.399994 216 L 184.399994 220.900024 L 177.5 227.799988 L 184.399994 227.799988 L 189.899994 227.799988 L 189.899994 237.799988 Z M 185 208.900024 L 154.200012 178.099976 L 207.899994 152.700012 C 207.100006 174.299988 198.600006 193.900024 185 208.900024 Z M 228.299988 98.200012 L 221.799988 104.700012 L 221.799988 92.299988 L 225.200012 92.299988 L 228.399994 92.299988 L 228.399994 98.200012 Z"/>
            <path id="XMLID898" fill="#000000" stroke="none" d="M 187.700012 198 C 187.700012 199.546387 186.446411 200.799988 184.899994 200.799988 C 183.353607 200.799988 182.100006 199.546387 182.100006 198 C 182.100006 196.453613 183.353607 195.200012 184.899994 195.200012 C 186.446411 195.200012 187.700012 196.453613 187.700012 198 Z"/>
            <path id="XMLID899" fill="#000000" stroke="none" d="M 195.899994 183.099976 C 195.899994 184.646362 194.646393 185.900024 193.100006 185.900024 C 191.553589 185.900024 190.299988 184.646362 190.299988 183.099976 C 190.299988 181.553589 191.553589 180.299988 193.100006 180.299988 C 194.646393 180.299988 195.899994 181.553589 195.899994 183.099976 Z"/>
            <path id="XMLID900" fill="#000000" stroke="none" d="M 201.5 166.799988 C 201.5 168.346436 200.246399 169.599976 198.700012 169.599976 C 197.153595 169.599976 195.899994 168.346436 195.899994 166.799988 C 195.899994 165.253601 197.153595 164 198.700012 164 C 200.246399 164 201.5 165.253601 201.5 166.799988 Z"/>
            <path id="XMLID901" fill="#000000" stroke="none" d="M 57.5 198 C 57.5 199.546387 56.246399 200.799988 54.699997 200.799988 C 53.15361 200.799988 51.899994 199.546387 51.899994 198 C 51.899994 196.453613 53.15361 195.200012 54.699997 195.200012 C 56.246399 195.200012 57.5 196.453613 57.5 198 Z"/>
            <path id="XMLID902" fill="#000000" stroke="none" d="M 49.199997 183.099976 C 49.199997 184.646362 47.946396 185.900024 46.399994 185.900024 C 44.853607 185.900024 43.600006 184.646362 43.600006 183.099976 C 43.600006 181.553589 44.853607 180.299988 46.399994 180.299988 C 47.946396 180.299988 49.199997 181.553589 49.199997 183.099976 Z"/>
            <path id="XMLID903" fill="#000000" stroke="none" d="M 43.600006 166.799988 C 43.600006 168.346436 42.34639 169.599976 40.800003 169.599976 C 39.253601 169.599976 38 168.346436 38 166.799988 C 38 165.253601 39.253601 164 40.800003 164 C 42.34639 164 43.600006 165.253601 43.600006 166.799988 Z"/>
            <path id="XMLID904" fill="#000000" stroke="none" d="M 177.776825 144.262512 L 182.090118 148.575806 L 177.776794 152.88916 L 173.463501 148.575867 Z"/>
            <path id="XMLID905" fill="#000000" stroke="none" d="M 61.74057 152.92395 L 57.427261 148.610657 L 61.740585 144.297363 L 66.053879 148.610657 Z"/>
            <path id="XMLID906" fill="#000000" stroke="none" d="M 72.300003 81.700012 L 72.300003 66.900024 L 53.199997 114.599976 L 63.100006 104.700012 Z"/>
            <path id="XMLID907" fill="#000000" stroke="none" d="M 186.299988 114.599976 L 167.200012 66.900024 L 167.200012 81.700012 L 176.399994 104.700012 Z"/>
        </g>
    </g>
</svg>
