<svg width="365" height="323" viewBox="0 0 365 323" xmlns="http://www.w3.org/2000/svg" xmlns:xlink="http://www.w3.org/1999/xlink">
    <g id="XMLID32">
        <g id="XMLID683">
            <path id="XMLID1008" fill="#000000" stroke="none" d="M 354 197.099976 L 340.099976 197.099976 L 335.5 197.099976 L 332.299988 200.299988 L 327.900024 204.700012 L 251.200012 186.099976 L 251.200012 183.099976 L 248 179.900024 L 243.400024 175.299988 L 240.200012 172.099976 L 235.599976 172.099976 L 224.400024 172.099976 L 222.200012 172.099976 L 222.299988 112.200012 L 229.200012 105.299988 L 232.400024 102.099976 L 232.400024 97.5 L 232.400024 54.900024 L 232.400024 50.299988 L 229.200012 47.099976 L 190.5 8.400024 L 182.700012 0.599976 L 174.900024 8.400024 L 136.200012 47.099976 L 133 50.299988 L 133 54.900024 L 133 97.5 L 133 102.099976 L 136.200012 105.299988 L 143.099976 112.200012 L 143.200012 172.099976 L 141 172.099976 L 129.799988 172.099976 L 125.200012 172.099976 L 122 175.299988 L 117.400024 179.900024 L 114.200012 183.099976 L 114.200012 186.099976 L 37.5 204.700012 L 33.099976 200.299988 L 29.900024 197.099976 L 25.299988 197.099976 L 11.400024 197.099976 L 0.400024 197.099976 L 0.400024 208.099976 L 0.400024 253.599976 L 0.400024 258.200012 L 3.599976 261.400024 L 16.299988 274.099976 L 24.099976 281.900024 L 31.900024 274.099976 L 38.5 267.5 L 51.599976 267.5 L 58.799988 274.700012 L 62 277.900024 L 66.599976 277.900024 L 99.700012 277.900024 L 105.200012 283.400024 L 105.200012 297.900024 L 105.200012 302.5 L 108.400024 305.700012 L 110.5 307.799988 L 110.5 311.200012 L 110.5 322.200012 L 121.5 322.200012 L 147 322.200012 L 158 322.200012 L 158 311.200012 L 158 302.200012 L 160.099976 304.299988 L 163.299988 307.5 L 167.900024 307.5 L 182.599976 307.5 L 197.299988 307.5 L 201.900024 307.5 L 205.099976 304.299988 L 207.200012 302.200012 L 207.200012 311.200012 L 207.200012 322.200012 L 218.200012 322.200012 L 243.700012 322.200012 L 254.700012 322.200012 L 254.700012 311.200012 L 254.700012 307.799988 L 256.799988 305.700012 L 260 302.5 L 260 297.900024 L 260 283.400024 L 265.5 277.900024 L 298.599976 277.900024 L 303.200012 277.900024 L 306.400024 274.700012 L 313.599976 267.5 L 326.700012 267.5 L 333.299988 274.099976 L 341.099976 281.900024 L 348.900024 274.099976 L 361.599976 261.400024 L 364.800049 258.200012 L 364.800049 253.599976 L 364.800049 208.099976 L 364.800049 197.099976 L 354 197.099976 Z M 327.799988 232.599976 L 312.299988 232.599976 L 312.299988 225.900024 L 317.299988 220.900024 L 317.299988 213.5 L 327.799988 216 L 327.799988 232.599976 Z M 311.799988 218.599976 L 306.799988 223.599976 L 306.799988 232.599976 L 292.799988 232.599976 L 292.799988 225.900024 L 297.799988 220.900024 L 297.799988 208.799988 L 311.799988 212.200012 L 311.799988 218.599976 Z M 292.299988 218.599976 L 287.299988 223.599976 L 287.299988 232.599976 L 273.299988 232.599976 L 273.299988 225.900024 L 278.299988 220.900024 L 278.299988 204 L 292.299988 207.400024 L 292.299988 218.599976 Z M 272.799988 202.799988 L 272.799988 218.599976 L 267.799988 223.599976 L 267.799988 232.599976 L 256.099976 232.599976 L 256.099976 198.5 L 273.299988 202.700012 L 272.799988 202.700012 Z M 107.799988 232.599976 L 96.099976 232.599976 L 96.099976 223.599976 L 91.099976 218.599976 L 91.099976 203 L 107.799988 198.900024 L 107.799988 232.599976 Z M 90.599976 225.900024 L 90.599976 232.599976 L 76.599976 232.599976 L 76.599976 223.599976 L 71.599976 218.599976 L 71.599976 207.799988 L 85.599976 204.400024 L 85.599976 220.900024 L 90.599976 225.900024 Z M 71.099976 225.900024 L 71.099976 232.599976 L 57.099976 232.599976 L 57.099976 223.599976 L 52.099976 218.599976 L 52.099976 212.5 L 66.099976 209.099976 L 66.099976 220.799988 L 71.099976 225.900024 Z M 46.599976 213.799988 L 46.599976 220.799988 L 51.599976 225.799988 L 51.599976 232.5 L 36.099976 232.5 L 36.099976 216.299988 L 46.599976 213.799988 Z M 16.700012 258.799988 L 16.900024 258.799988 L 16.900024 248 L 11.5 248 L 11.5 231 L 16.900024 231 L 16.900024 220.200012 L 11.5 220.200012 L 11.5 213.5 L 16.900024 213.5 L 16.900024 208.099976 L 25.400024 208.099976 L 30.599976 213.299988 L 30.599976 260 L 24.200012 266.400024 L 16.700012 258.799988 Z M 36.099976 256.5 L 36.099976 238.099976 L 46.599976 238.099976 L 46.599976 246.200012 L 51.599976 251.200012 L 51.599976 256.400024 L 36.099976 256.400024 Z M 57.099976 257.299988 L 57.099976 249 L 52.099976 244 L 52.099976 238.200012 L 66.099976 238.200012 L 66.099976 253.599976 L 71.099976 258.599976 L 71.099976 267 L 66.700012 267 L 57.099976 257.299988 Z M 71.599976 251.200012 L 71.599976 238.099976 L 85.599976 238.099976 L 85.599976 253.5 L 90.599976 258.5 L 90.599976 266.900024 L 76.599976 266.900024 L 76.599976 256.200012 L 71.599976 251.200012 Z M 104.400024 266.900024 L 96.099976 266.900024 L 96.099976 256.200012 L 91.099976 251.200012 L 91.099976 238.099976 L 107.799988 238.099976 L 107.799988 270.299988 L 104.400024 266.900024 Z M 147.200012 297.200012 L 147.200012 311.200012 L 121.700012 311.200012 L 121.700012 303.299988 L 116.400024 298 L 116.400024 278.900024 L 113.400024 275.900024 L 113.400024 275.799988 L 120.900024 268.299988 L 127.799988 268.299988 L 127.799988 285 L 133.299988 279.5 L 133.299988 262.700012 L 118.599976 262.700012 L 113.400024 267.900024 L 113.400024 249.799988 L 121.299988 241.900024 L 128.5 241.900024 L 142.700012 256.099976 L 143.400024 256.799988 L 143.400024 269.799988 L 149.799988 276.200012 L 149.799988 294.700012 L 147.200012 297.200012 Z M 204 289.900024 L 197.400024 296.5 L 182.700012 296.5 L 168 296.5 L 161.400024 289.900024 L 155.099976 289.900024 L 155.099976 273.900024 L 148.700012 267.5 L 148.700012 254.5 L 146.400024 252.200012 L 130.599976 236.400024 L 118.799988 236.400024 L 113.200012 242 L 113.200012 197.599976 L 125.099976 194.700012 L 125.099976 187.599976 L 129.700012 183 L 141 183 L 146.700012 188.700012 L 154.200012 188.700012 L 154.099976 107.599976 L 144 97.5 L 144 54.900024 L 182.700012 16.200012 L 221.400024 54.900024 L 221.400024 97.5 L 211.299988 107.599976 L 211.200012 188.700012 L 218.700012 188.700012 L 224.400024 183 L 235.599976 183 L 240.200012 187.599976 L 240.200012 194.700012 L 250.5 197.200012 L 250.5 242 L 244.900024 236.400024 L 233.099976 236.400024 L 217.299988 252.200012 L 215 254.5 L 215 267.5 L 208.599976 273.900024 L 208.599976 289.900024 L 204 289.900024 Z M 249.200012 297.900024 L 243.900024 303.200012 L 243.900024 311.099976 L 218.400024 311.099976 L 218.400024 297.099976 L 214.299988 293 L 214.299988 276.099976 L 220.700012 269.700012 L 220.700012 256.700012 L 221.400024 256 L 235.599976 241.799988 L 242.799988 241.799988 L 250.700012 249.700012 L 250.700012 268 L 245.5 262.799988 L 230.799988 262.799988 L 230.799988 279.599976 L 236.299988 285.099976 L 236.299988 268.299988 L 243.200012 268.299988 L 250.700012 275.799988 L 250.700012 277.5 L 249.299988 278.900024 L 249.299988 297.900024 Z M 261.099976 266.900024 L 256.099976 271.900024 L 256.099976 238.099976 L 272.799988 238.099976 L 272.799988 251.200012 L 267.799988 256.200012 L 267.799988 266.900024 L 261.099976 266.900024 Z M 273.299988 258.5 L 278.299988 253.5 L 278.299988 238.099976 L 292.299988 238.099976 L 292.299988 251.200012 L 287.299988 256.200012 L 287.299988 266.900024 L 273.299988 266.900024 L 273.299988 258.5 Z M 298.700012 266.900024 L 292.700012 266.900024 L 292.700012 258.5 L 297.700012 253.5 L 297.700012 238.099976 L 311.700012 238.099976 L 311.700012 243.900024 L 306.700012 248.900024 L 306.700012 258.799988 L 298.700012 266.900024 Z M 312.299988 256.5 L 312.299988 251.299988 L 317.299988 246.299988 L 317.299988 238.200012 L 327.799988 238.200012 L 327.799988 256.599976 L 312.299988 256.599976 Z M 333.299988 258.400024 L 333.299988 215 L 340.099976 208.200012 L 348.599976 208.200012 L 348.599976 213.599976 L 354 213.599976 L 354 220.299988 L 348.599976 220.299988 L 348.599976 231 L 354 231 L 354 248.099976 L 348.599976 248.099976 L 348.599976 258.900024 L 348.799988 258.900024 L 341.299988 266.400024 L 333.299988 258.400024 Z"/>
            <path id="XMLID1031" fill="#000000" stroke="none" d="M 174 212.400024 L 164.700012 221.700012 L 164.700012 267.900024 L 181.099976 285 L 197.5 267.900024 L 197.5 221.700012 L 188.200012 212.400024 L 174 212.400024 Z M 192 265.599976 L 181.099976 277 L 170.200012 265.700012 L 170.200012 224 L 176.299988 217.900024 L 185.900024 217.900024 L 192 224 L 192 265.599976 Z"/>
            <path id="XMLID1032" fill="#000000" stroke="none" d="M 175.5 186.5 L 164.799988 175.900024 L 164.799988 138.700012 L 175.5 128 L 170 122.5 L 170 125.700012 L 159.299988 136.400024 L 159.299988 178.099976 L 170 188.799988 L 170 196.599976 L 150.700012 215.900024 L 150.700012 248.099976 L 156.200012 242.599976 L 156.200012 218.200012 L 175.5 198.900024 Z"/>
            <path id="XMLID1033" fill="#000000" stroke="none" d="M 169.299988 96.400024 L 169.299988 77.400024 L 169.299988 61 L 175.5 54.900024 L 175.5 47.099976 L 163.799988 58.799988 L 163.799988 98.700012 L 169.299988 104.200012 Z"/>
            <path id="XMLID1034" fill="#000000" stroke="none" d="M 122.700012 202.799988 L 127.299988 207.400024 L 127.299988 218 L 134.299988 218 L 134.299988 213.299988 L 139.5 213.299988 L 139.5 202.799988 L 129 202.799988 Z"/>
            <path id="XMLID1035" fill="#000000" stroke="none" d="M 213.200012 248.099976 L 213.200012 215.900024 L 193.900024 196.599976 L 193.900024 188.799988 L 204.599976 178.099976 L 204.599976 136.400024 L 193.900024 125.700012 L 193.900024 122.5 L 188.400024 128 L 199.099976 138.700012 L 199.099976 175.900024 L 188.400024 186.5 L 188.400024 198.900024 L 207.700012 218.200012 L 207.700012 242.599976 Z"/>
            <path id="XMLID1036" fill="#000000" stroke="none" d="M 194.599976 76.700012 L 194.599976 96.400024 L 194.599976 104.200012 L 200.099976 98.700012 L 200.099976 58.799988 L 188.200012 46.900024 L 188.200012 54.700012 L 194.599976 61 Z"/>
            <path id="XMLID1037" fill="#000000" stroke="none" d="M 229.599976 218 L 236.599976 218 L 236.599976 207.400024 L 241.200012 202.799988 L 234.900024 202.799988 L 224.400024 202.799988 L 224.400024 213.299988 L 229.599976 213.299988 Z"/>
        </g>
    </g>
</svg>
